<?xml version="1.0" encoding="UTF-8"?>
<svg width="449px" height="534px" viewBox="0 0 449 534" version="1.1" xmlns="http://www.w3.org/2000/svg" xmlns:xlink="http://www.w3.org/1999/xlink">
    <!-- Generator: Sketch 41.2 (35397) - http://www.bohemiancoding.com/sketch -->
    <title>Slice</title>
    <desc>Created with Sketch.</desc>
    <defs></defs>
    <g id="Page-1" stroke="none" stroke-width="1" fill="none" fill-rule="evenodd">
        <g id="google-adwords">
            <g id="Layer_3">
                <g id="Group">
                    <path d="M339.804221,448.403066 L448.902622,448.421263 L448.793505,448.172566 L299.80693,0.808460526 L299.80693,431.358197 C309.936586,441.815618 324.05506,448.403066 339.804221,448.403066" id="Shape" fill="#0F9D59"></path>
                    <path d="M224.86202,224.296408 L287.125157,411.280434 C287.143343,411.316829 287.143343,411.353224 287.16153,411.419947 C289.87732,419.00825 294.266232,425.704882 299.752371,431.376395 L299.752371,0.838789474 L299.594758,0.414184211 L224.86202,224.296408 Z" id="Shape" fill="#0A6E3D"></path>
                    <path d="M150.165654,0.402052632 L150.129282,0.559763158 L150.074724,0.402052632 L0.924473167,448.190763 L0.81535658,448.421263 L109.913758,448.421263 C125.650794,448.421263 139.787454,441.864145 149.929235,431.327868 C155.397188,425.674553 159.7861,418.977921 162.501891,411.389618 C162.520077,411.316829 162.520077,411.280434 162.538263,411.280434 L299.625069,0.347460526 L150.129282,0.347460526 L150.129282,0.402052632 L150.165654,0.402052632 Z" id="Shape" fill="#4284F4"></path>
                </g>
            </g>
        </g>
        <g id="google-adwords-text" transform="translate(0.000000, 469.000000)">
            <g id="Layer_1">
                <g id="Group">
                    <g>
                        <path d="M48.1741586,23.1531924 L25.2460953,23.1531924 L25.2460953,29.9062069 L41.4164137,29.9062069 C40.6923696,39.5533704 32.7278844,43.4122358 25.2460953,43.4122358 C15.5921739,43.4122358 7.38634071,35.9356841 7.38634071,25.3238042 C7.38634071,14.9531034 15.3508259,6.99419355 25.4874433,6.99419355 C33.2105805,6.99419355 37.7961931,11.8177753 37.7961931,11.8177753 L42.6231538,6.99419355 C42.6231538,6.99419355 36.589453,0.241179088 25.2460953,0.241179088 C11.0065612,0.241179088 0.14589966,12.3001335 0.14589966,25.0826251 C0.14589966,37.8651168 10.5238652,50.1652503 25.7287914,50.1652503 C39.0029333,50.1652503 48.8982028,41.0004449 48.8982028,27.494416 C48.4155067,24.8414461 48.1741586,23.1531924 48.1741586,23.1531924 L48.1741586,23.1531924 Z" id="path2998" fill="#587FC0"></path>
                        <path d="M66.7579574,18.0884316 C57.345384,18.0884316 50.587639,25.3238042 50.587639,34.0062514 C50.587639,42.6886986 57.1040359,50.1652503 66.7579574,50.1652503 C75.4464866,50.1652503 82.6869277,43.4122358 82.6869277,34.2474305 C82.9282757,23.6355506 74.4810945,18.0884316 66.7579574,18.0884316 L66.7579574,18.0884316 Z M66.9993054,24.600267 C71.5849181,24.600267 75.9291827,28.4591324 75.9291827,34.4886096 C75.9291827,40.2769077 71.5849181,44.1357731 66.9993054,44.1357731 C61.9309967,44.1357731 57.8280801,40.0357286 57.8280801,34.2474305 C57.8280801,28.7003115 61.6896486,24.600267 66.9993054,24.600267 L66.9993054,24.600267 Z" id="path3000" fill="#DB3336"></path>
                        <path d="M101.99477,18.0884316 C92.5821971,18.0884316 85.8244521,25.3238042 85.8244521,34.0062514 C85.8244521,42.6886986 92.3408491,50.1652503 101.99477,50.1652503 C110.6833,50.1652503 117.923741,43.4122358 117.923741,34.2474305 C118.165089,23.6355506 109.717908,18.0884316 101.99477,18.0884316 L101.99477,18.0884316 Z M101.99477,24.600267 C106.580383,24.600267 110.924648,28.4591324 110.924648,34.4886096 C110.924648,40.2769077 106.580383,44.1357731 101.99477,44.1357731 C96.9264617,44.1357731 92.8235451,40.0357286 92.8235451,34.2474305 C92.8235451,28.7003115 96.9264617,24.600267 101.99477,24.600267 L101.99477,24.600267 Z" id="path3005" fill="#F3C217"></path>
                        <path d="M136.50754,18.0884316 C127.81901,18.0884316 121.061265,25.5649833 121.061265,34.2474305 C121.061265,43.894594 129.02575,50.4064294 136.266191,50.4064294 C140.851804,50.4064294 143.265284,48.4769967 145.196069,46.547564 L145.196069,49.6828921 C145.196069,55.2300111 141.817196,58.6065184 136.748888,58.6065184 C131.921927,58.6065184 129.267098,54.988832 128.543054,52.8182202 L122.268005,55.4711902 C124.440138,60.0535929 128.784402,64.8771746 136.748888,64.8771746 C145.437417,64.8771746 151.953814,59.5712347 151.953814,48.2358176 L151.953814,19.294327 L145.196069,19.294327 L145.196069,21.947297 C143.023936,19.5355061 140.369108,18.0884316 136.50754,18.0884316 L136.50754,18.0884316 Z M137.231584,24.600267 C141.575848,24.600267 145.920113,28.2179533 145.920113,34.4886096 C145.920113,40.7592659 141.575848,44.1357731 137.231584,44.1357731 C132.645971,44.1357731 128.301706,40.2769077 128.301706,34.4886096 C128.060358,28.2179533 132.645971,24.600267 137.231584,24.600267 L137.231584,24.600267 Z" id="path3007" fill="#587FC0"></path>
                        <path d="M181.88097,18.0884316 C173.675137,18.0884316 166.917392,24.600267 166.917392,34.2474305 C166.917392,44.3769522 174.640529,50.4064294 182.605014,50.4064294 C189.362759,50.4064294 193.465676,46.788743 196.120504,43.4122358 L190.569499,39.7945495 C189.121411,41.9651613 186.707931,44.1357731 182.605014,44.1357731 C178.019402,44.1357731 176.088617,41.7239822 174.640529,39.3121913 L196.120504,30.3885651 L194.913764,27.7355951 C193.224328,22.4296552 188.397367,18.0884316 181.88097,18.0884316 L181.88097,18.0884316 Z M182.122318,24.3590879 C185.018495,24.3590879 187.190627,25.8061624 188.156019,27.7355951 L173.675137,33.7650723 C173.192441,29.1826696 177.536705,24.3590879 182.122318,24.3590879 L182.122318,24.3590879 Z" id="path3011" fill="#DB3336"></path>
                        <polygon id="path3015" fill="#45B754" points="156.539426 49.441713 163.538519 49.441713 163.538519 1.9294327 156.539426 1.9294327"></polygon>
                    </g>
                    <g transform="translate(210.601386, 6.354616)" id="Shape" fill="#64676B">
                        <path d="M5.68434189e-14,43.0870968 L16.1703184,0.157219132 L22.4453673,0.157219132 L38.6156856,43.0870968 L32.5819847,43.0870968 L28.4790681,31.5105006 L10.3779655,31.5105006 L6.27504891,43.0870968 L5.68434189e-14,43.0870968 Z M12.0674018,26.4457397 L26.3069358,26.4457397 L19.3078428,7.15141268 L19.0664948,7.15141268 L12.0674018,26.4457397 Z"></path>
                        <path d="M54.0619599,44.0518131 C50.2003913,44.0518131 47.0628668,42.6047386 44.1666904,39.4694105 C41.511862,36.5752614 40.0637738,32.716396 40.0637738,28.3751724 C40.0637738,24.0339488 41.511862,20.1750834 44.1666904,17.2809344 C46.8215188,14.3867853 50.2003913,12.6985317 54.0619599,12.6985317 C56.2340922,12.6985317 58.4062245,13.1808899 60.0956607,14.1456062 C61.785097,15.1103226 63.2331852,16.316218 64.1985773,17.7632925 L64.4399254,17.7632925 L64.1985773,13.6632481 L64.1985773,0.157219132 L69.7495822,0.157219132 L69.7495822,43.0870968 L64.4399254,43.0870968 L64.4399254,38.9870523 L64.1985773,38.9870523 C63.2331852,40.4341268 62.026445,41.6400222 60.0956607,42.6047386 C58.4062245,43.5694549 56.4754402,44.0518131 54.0619599,44.0518131 Z M55.027352,38.9870523 C57.6821804,38.9870523 59.8543127,38.0223359 61.785097,36.0929032 C63.7158813,34.1634705 64.4399254,31.5105006 64.4399254,28.3751724 C64.4399254,25.2398443 63.4745332,22.5868743 61.785097,20.6574416 C59.8543127,18.7280089 57.6821804,17.7632925 55.027352,17.7632925 C52.3725236,17.7632925 50.2003913,18.7280089 48.5109551,20.6574416 C46.5801708,22.5868743 45.8561267,25.2398443 45.8561267,28.3751724 C45.8561267,31.5105006 46.8215188,34.1634705 48.5109551,36.0929032 C50.2003913,38.0223359 52.6138717,38.9870523 55.027352,38.9870523 Z"></path>
                        <polygon points="127.673111 0.157219132 116.088405 43.0870968 110.5374 43.0870968 101.366175 14.6279644 101.124827 14.6279644 91.7122533 43.0870968 86.1612485 43.0870968 74.0938468 0.157219132 79.8861996 0.157219132 89.057425 33.9222914 89.298773 33.9222914 98.7113464 5.94551724 103.779655 5.94551724 113.192228 33.9222914 113.433577 33.9222914 122.122106 0.157219132"></polygon>
                        <path d="M131.293331,17.2809344 C134.189508,14.3867853 137.809728,12.6985317 142.153993,12.6985317 C146.498257,12.6985317 150.118478,14.1456062 153.014654,17.2809344 C155.910831,20.1750834 157.358919,24.0339488 157.358919,28.3751724 C157.358919,32.9575751 155.910831,36.5752614 153.014654,39.4694105 C150.118478,42.3635595 146.498257,44.0518131 142.153993,44.0518131 C137.809728,44.0518131 134.189508,42.6047386 131.293331,39.4694105 C128.397155,36.5752614 126.949066,32.716396 126.949066,28.3751724 C126.949066,24.0339488 128.397155,20.1750834 131.293331,17.2809344 Z M135.396248,36.0929032 C137.327032,38.0223359 139.499164,38.9870523 142.153993,38.9870523 C144.808821,38.9870523 146.980953,38.0223359 148.911738,36.0929032 C150.842522,34.1634705 151.807914,31.5105006 151.807914,28.3751724 C151.807914,25.2398443 150.842522,22.5868743 148.911738,20.6574416 C146.980953,18.7280089 144.808821,17.7632925 142.153993,17.7632925 C139.499164,17.7632925 137.327032,18.7280089 135.396248,20.6574416 C133.465463,22.5868743 132.500071,25.2398443 132.500071,28.3751724 C132.500071,31.7516796 133.465463,34.1634705 135.396248,36.0929032 Z"></path>
                        <path d="M167.254188,43.0870968 L161.703184,43.0870968 L161.703184,13.6632481 L167.01284,13.6632481 L167.01284,18.4868298 L167.254188,18.4868298 C167.736884,16.7985762 168.943625,15.5926808 170.633061,14.6279644 C172.322497,13.6632481 174.011933,13.1808899 175.70137,13.1808899 C177.390806,13.1808899 178.838894,13.422069 179.804286,13.9044271 L177.632154,18.969188 C176.90811,18.7280089 175.942718,18.4868298 174.735977,18.4868298 C172.805193,18.4868298 170.874409,19.2103671 169.426321,20.8986207 C167.978232,22.5868743 167.01284,24.516307 167.01284,27.169277 L167.01284,43.0870968 L167.254188,43.0870968 Z"></path>
                        <path d="M194.04382,44.0518131 C190.182252,44.0518131 187.044727,42.6047386 184.148551,39.4694105 C181.493722,36.5752614 180.045634,32.716396 180.045634,28.3751724 C180.045634,24.0339488 181.493722,20.1750834 184.148551,17.2809344 C186.803379,14.3867853 190.182252,12.6985317 194.04382,12.6985317 C196.215953,12.6985317 198.388085,13.1808899 200.077521,14.1456062 C201.766957,15.1103226 203.215046,16.316218 204.180438,17.7632925 L204.421786,17.7632925 L204.180438,13.6632481 L204.180438,0.157219132 L209.731443,0.157219132 L209.731443,43.0870968 L204.421786,43.0870968 L204.421786,38.9870523 L204.180438,38.9870523 C203.215046,40.4341268 202.008305,41.6400222 200.077521,42.6047386 C198.388085,43.5694549 196.215953,44.0518131 194.04382,44.0518131 Z M195.009212,38.9870523 C197.664041,38.9870523 199.836173,38.0223359 201.766957,36.0929032 C203.697742,34.1634705 204.421786,31.5105006 204.421786,28.3751724 C204.421786,25.2398443 203.456394,22.5868743 201.766957,20.6574416 C199.836173,18.7280089 197.664041,17.7632925 195.009212,17.7632925 C192.354384,17.7632925 190.182252,18.7280089 188.492815,20.6574416 C186.562031,22.5868743 185.837987,25.2398443 185.837987,28.3751724 C185.837987,31.5105006 186.803379,34.1634705 188.492815,36.0929032 C190.182252,38.0223359 192.354384,38.9870523 195.009212,38.9870523 Z"></path>
                        <path d="M227.108501,44.0518131 C223.729629,44.0518131 221.0748,43.3282759 218.902668,41.6400222 C216.730536,39.9517686 215.282447,38.0223359 214.075707,35.6105451 L218.902668,33.6811123 C220.350756,37.2987987 223.246932,39.2282314 226.867153,39.2282314 C228.556589,39.2282314 230.004677,38.7458732 231.211418,38.0223359 C232.418158,37.2987987 232.900854,36.3340823 232.900854,35.1281869 C232.900854,33.1987542 231.452766,31.9928587 228.797937,31.2693215 L222.764236,29.8222469 C220.833452,29.3398888 219.144016,28.3751724 217.45458,27.169277 C215.765143,25.7222024 215.041099,24.0339488 215.041099,21.622158 C215.041099,18.969188 216.247839,16.7985762 218.419972,15.3515017 C220.833452,13.6632481 223.488281,12.9397108 226.625805,12.9397108 C229.280633,12.9397108 231.452766,13.422069 233.624898,14.6279644 C235.555682,15.8338598 237.245119,17.5221135 237.969163,19.6927253 L233.142202,21.622158 C232.17681,18.969188 229.763329,17.7632925 226.384457,17.7632925 C224.695021,17.7632925 223.246932,18.0044716 222.28154,18.7280089 C221.0748,19.4515462 220.592104,20.4162625 220.592104,21.3809789 C220.592104,23.0692325 221.798844,24.2751279 224.453673,24.7574861 L230.246026,26.2045606 C232.900854,26.9280979 235.072986,27.8928142 236.279726,29.5810679 C237.486467,31.0281424 238.210511,32.9575751 238.210511,34.8870078 C238.210511,37.5399778 237.245119,39.7105895 235.072986,41.3988432 C233.142202,43.3282759 230.487374,44.0518131 227.108501,44.0518131 Z"></path>
                    </g>
                </g>
            </g>
        </g>
    </g>
</svg>