<svg width="449" height="449" viewBox="0 0 449 449" xmlns="http://www.w3.org/2000/svg">
  <title>
    Slice
  </title>
  <g fill="none" fill-rule="evenodd">
    <path d="M339.804 448.403l109.1.018-.11-.247L299.807.808v430.55c10.13 10.458 24.248 17.045 39.997 17.045" fill="#0F9D59"/>
    <path d="M224.862 224.296l62.263 186.984c.018.037.018.073.037.14 2.715 7.588 7.104 14.285 12.59 19.956V.84l-.157-.426-74.733 223.882z" fill="#0A6E3D"/>
    <path d="M150.166.402l-.037.158-.055-.158L.925 448.192l-.11.23h109.1c15.736 0 29.872-6.558 40.014-17.094 5.467-5.653 9.856-12.35 12.572-19.938.018-.073.018-.11.036-.11L299.625.347H150.13v.055h.036z" fill="#4284F4"/>
  </g>
</svg>

