<?xml version="1.0" encoding="UTF-8"?>
<svg width="449px" height="449px" viewBox="0 0 449 449" version="1.1" xmlns="http://www.w3.org/2000/svg" xmlns:xlink="http://www.w3.org/1999/xlink">
    <!-- Generator: Sketch 41.2 (35397) - http://www.bohemiancoding.com/sketch -->
    <title>Slice</title>
    <desc>Created with Sketch.</desc>
    <defs></defs>
    <g id="Page-1" stroke="none" stroke-width="1" fill="none" fill-rule="evenodd">
        <g id="google-adwords">
            <g id="Layer_3">
                <g id="Group">
                    <path d="M339.804221,448.403066 L448.902622,448.421263 L448.793505,448.172566 L299.80693,0.808460526 L299.80693,431.358197 C309.936586,441.815618 324.05506,448.403066 339.804221,448.403066" id="Shape" fill="#0F9D59"></path>
                    <path d="M224.86202,224.296408 L287.125157,411.280434 C287.143343,411.316829 287.143343,411.353224 287.16153,411.419947 C289.87732,419.00825 294.266232,425.704882 299.752371,431.376395 L299.752371,0.838789474 L299.594758,0.414184211 L224.86202,224.296408 Z" id="Shape" fill="#0A6E3D"></path>
                    <path d="M150.165654,0.402052632 L150.129282,0.559763158 L150.074724,0.402052632 L0.924473167,448.190763 L0.81535658,448.421263 L109.913758,448.421263 C125.650794,448.421263 139.787454,441.864145 149.929235,431.327868 C155.397188,425.674553 159.7861,418.977921 162.501891,411.389618 C162.520077,411.316829 162.520077,411.280434 162.538263,411.280434 L299.625069,0.347460526 L150.129282,0.347460526 L150.129282,0.402052632 L150.165654,0.402052632 Z" id="Shape" fill="#4284F4"></path>
                </g>
            </g>
        </g>
    </g>
</svg>