<svg width="814" height="722" viewBox="0 0 814 722" xmlns="http://www.w3.org/2000/svg">
  <title>
    Technical SEO
  </title>
  <g transform="translate(0 -1)" fill="none" fill-rule="evenodd">
    <path fill="#7B7B7B" d="M231.71 116.682h58.206V.27L231.71 58.474M586.608 116.682H528.4V.27l58.208 58.205"/>
    <path fill="#5A5A5A" d="M289.916.27H528.4v58.206H289.917z"/>
    <path d="M813.775 347.89v310.433c0 35.572-29.105 64.677-64.677 64.677H65.986C30.414 723 1.31 693.895 1.31 658.323V347.89" fill="#E6E7E8"/>
    <path fill="#D0D1D2" d="M697.77 115.47H114.89L.095 227.03v121.263h812.466V227.032"/>
    <path d="M719.19 349.508V264.22c0-17.785-14.553-32.338-32.34-32.338H128.233c-17.786 0-32.34 14.552-32.34 32.34v85.286" fill="#458CF5"/>
    <circle fill="#E6E7E8" cx="160.973" cy="283.621" r="23.343"/>
    <circle fill="#E6E7E8" cx="233.326" cy="283.621" r="23.343"/>
    <path fill="#FFF" d="M95.894 349.508H719.19V723H95.893z"/>
    <path fill="#D2D3D4" d="M137.63 674.494h268.7V723h-268.7zM137.63 393.762h208.068V625.99H137.63zM470.8 395.116l151.11 151.108V418.25l96.07 96.07V723H588.022L454.228 589.205"/>
    <path d="M665.227 517.66c0-54.57-32.198-101.593-78.62-123.184V522.51l-57.903 33.146L470.8 522.51V395.117c-45.665 21.88-77.204 68.527-77.204 122.545 0 54.02 31.54 100.666 77.204 122.546V723h117.222v-82.794c45.666-21.88 77.205-68.527 77.205-122.546z" fill="#505050"/>
  </g>
</svg>

