<svg version="1.1" id="Layer_1" xmlns="http://www.w3.org/2000/svg" xmlns:xlink="http://www.w3.org/1999/xlink" x="0px" y="0px"
	 viewBox="0 0 221.5 91" enable-background="new 0 0 221.5 91" xml:space="preserve">
<path id="D_Glow_1_" display="none" fill="none" stroke="#683E98" stroke-miterlimit="10" d="M114.9,47.5V36.8l-7.8,3.1v10.2
	c-1.6-0.7-3.3-1-5-1c-7.1,0-12.8,5.7-12.8,12.8c0,0.2,0,0.5,0,0.7c3.2-0.8,5.8-2.9,7.4-5.7c0.5,0.1,1.1,0.2,1.6,0.2
	c1-0.8,2.3-1.3,3.7-1.3c1,0,1.9,0.2,2.7,0.6C109.2,55.1,112.9,51.8,114.9,47.5z"/>
<g>
	<g>
		<path id="path2998" fill="#587FC0" d="M37.7,41.6h-9.5v2.8h6.7c-0.3,4-3.6,5.6-6.7,5.6c-4,0-7.4-3.1-7.4-7.5
			c0-4.3,3.3-7.6,7.5-7.6c3.2,0,5.1,2,5.1,2l2-2c0,0-2.5-2.8-7.2-2.8c-5.9,0-10.4,5-10.4,10.3c0,5.3,4.3,10.4,10.6,10.4
			c5.5,0,9.6-3.8,9.6-9.4C37.8,42.3,37.7,41.6,37.7,41.6L37.7,41.6z"/>
		<path id="path3000" fill="#DB3336" d="M45.4,39.5c-3.9,0-6.7,3-6.7,6.6c0,3.6,2.7,6.7,6.7,6.7c3.6,0,6.6-2.8,6.6-6.6
			C52.1,41.8,48.6,39.5,45.4,39.5L45.4,39.5z M45.5,42.2c1.9,0,3.7,1.6,3.7,4.1c0,2.4-1.8,4-3.7,4c-2.1,0-3.8-1.7-3.8-4.1
			C41.7,43.9,43.3,42.2,45.5,42.2L45.5,42.2z"/>
		<path id="path3005" fill="#F3C217" d="M60,39.5c-3.9,0-6.7,3-6.7,6.6c0,3.6,2.7,6.7,6.7,6.7c3.6,0,6.6-2.8,6.6-6.6
			C66.7,41.8,63.2,39.5,60,39.5L60,39.5z M60,42.2c1.9,0,3.7,1.6,3.7,4.1c0,2.4-1.8,4-3.7,4c-2.1,0-3.8-1.7-3.8-4.1
			C56.2,43.9,57.9,42.2,60,42.2L60,42.2z"/>
		<path id="path3007" fill="#587FC0" d="M74.3,39.5c-3.6,0-6.4,3.1-6.4,6.7c0,4,3.3,6.7,6.3,6.7c1.9,0,2.9-0.8,3.7-1.6v1.3
			c0,2.3-1.4,3.7-3.5,3.7c-2,0-3.1-1.5-3.4-2.4l-2.6,1.1c0.9,1.9,2.7,3.9,6,3.9c3.6,0,6.3-2.2,6.3-6.9v-12h-2.8v1.1
			C77,40.1,75.9,39.5,74.3,39.5L74.3,39.5z M74.6,42.2c1.8,0,3.6,1.5,3.6,4.1c0,2.6-1.8,4-3.6,4c-1.9,0-3.7-1.6-3.7-4
			C70.8,43.7,72.7,42.2,74.6,42.2L74.6,42.2z"/>
		<path id="path3011" fill="#DB3336" d="M93.1,39.5c-3.4,0-6.2,2.7-6.2,6.7c0,4.2,3.2,6.7,6.5,6.7c2.8,0,4.5-1.5,5.6-2.9l-2.3-1.5
			c-0.6,0.9-1.6,1.8-3.3,1.8c-1.9,0-2.7-1-3.3-2l8.9-3.7l-0.5-1.1C97.8,41.3,95.8,39.5,93.1,39.5L93.1,39.5z M93.2,42.1
			c1.2,0,2.1,0.6,2.5,1.4l-6,2.5C89.5,44.1,91.3,42.1,93.2,42.1L93.2,42.1z"/>
		<path id="path3015" fill="#45B754" d="M82.6,52.5h2.9V32.8h-2.9V52.5z"/>
	</g>
	<g>
		<path fill="#64676B" d="M105,52.5l6.7-17.8h2.6l6.7,17.8h-2.5l-1.7-4.8h-7.5l-1.7,4.8H105z M110,45.6h5.9l-2.9-8h-0.1L110,45.6z"
			/>
		<path fill="#64676B" d="M127.4,52.9c-1.6,0-2.9-0.6-4.1-1.9c-1.1-1.2-1.7-2.8-1.7-4.6c0-1.8,0.6-3.4,1.7-4.6
			c1.1-1.2,2.5-1.9,4.1-1.9c0.9,0,1.8,0.2,2.5,0.6c0.7,0.4,1.3,0.9,1.7,1.5h0.1l-0.1-1.7v-5.6h2.3v17.8h-2.2v-1.7h-0.1
			c-0.4,0.6-0.9,1.1-1.7,1.5C129.2,52.7,128.4,52.9,127.4,52.9z M127.8,50.8c1.1,0,2-0.4,2.8-1.2c0.8-0.8,1.1-1.9,1.1-3.2
			s-0.4-2.4-1.1-3.2c-0.8-0.8-1.7-1.2-2.8-1.2c-1.1,0-2,0.4-2.7,1.2c-0.8,0.8-1.1,1.9-1.1,3.2c0,1.3,0.4,2.4,1.1,3.2
			C125.8,50.4,126.8,50.8,127.8,50.8z"/>
		<path fill="#64676B" d="M157.9,34.7l-4.8,17.8h-2.3l-3.8-11.8h-0.1L143,52.5h-2.3l-5-17.8h2.4l3.8,14h0.1l3.9-11.6h2.1l3.9,11.6
			h0.1l3.6-14H157.9z"/>
		<path fill="#64676B" d="M159.4,41.8c1.2-1.2,2.7-1.9,4.5-1.9c1.8,0,3.3,0.6,4.5,1.9c1.2,1.2,1.8,2.8,1.8,4.6
			c0,1.9-0.6,3.4-1.8,4.6c-1.2,1.2-2.7,1.9-4.5,1.9c-1.8,0-3.3-0.6-4.5-1.9c-1.2-1.2-1.8-2.8-1.8-4.6
			C157.6,44.6,158.2,43,159.4,41.8z M161.1,49.6c0.8,0.8,1.7,1.2,2.8,1.2c1.1,0,2-0.4,2.8-1.2c0.8-0.8,1.2-1.9,1.2-3.2
			c0-1.3-0.4-2.4-1.2-3.2c-0.8-0.8-1.7-1.2-2.8-1.2c-1.1,0-2,0.4-2.8,1.2c-0.8,0.8-1.2,1.9-1.2,3.2
			C159.9,47.8,160.3,48.8,161.1,49.6z"/>
		<path fill="#64676B" d="M174.3,52.5H172V40.3h2.2v2h0.1c0.2-0.7,0.7-1.2,1.4-1.6c0.7-0.4,1.4-0.6,2.1-0.6c0.7,0,1.3,0.1,1.7,0.3
			l-0.9,2.1c-0.3-0.1-0.7-0.2-1.2-0.2c-0.8,0-1.6,0.3-2.2,1c-0.6,0.7-1,1.5-1,2.6V52.5z"/>
		<path fill="#64676B" d="M185.4,52.9c-1.6,0-2.9-0.6-4.1-1.9c-1.1-1.2-1.7-2.8-1.7-4.6c0-1.8,0.6-3.4,1.7-4.6
			c1.1-1.2,2.5-1.9,4.1-1.9c0.9,0,1.8,0.2,2.5,0.6c0.7,0.4,1.3,0.9,1.7,1.5h0.1l-0.1-1.7v-5.6h2.3v17.8h-2.2v-1.7h-0.1
			c-0.4,0.6-0.9,1.1-1.7,1.5C187.2,52.7,186.3,52.9,185.4,52.9z M185.8,50.8c1.1,0,2-0.4,2.8-1.2c0.8-0.8,1.1-1.9,1.1-3.2
			s-0.4-2.4-1.1-3.2c-0.8-0.8-1.7-1.2-2.8-1.2c-1.1,0-2,0.4-2.7,1.2c-0.8,0.8-1.1,1.9-1.1,3.2c0,1.3,0.4,2.4,1.1,3.2
			C183.8,50.4,184.7,50.8,185.8,50.8z"/>
		<path fill="#64676B" d="M199.1,52.9c-1.4,0-2.5-0.3-3.4-1c-0.9-0.7-1.5-1.5-2-2.5l2-0.8c0.6,1.5,1.8,2.3,3.3,2.3
			c0.7,0,1.3-0.2,1.8-0.5c0.5-0.3,0.7-0.7,0.7-1.2c0-0.8-0.6-1.3-1.7-1.6l-2.5-0.6c-0.8-0.2-1.5-0.6-2.2-1.1c-0.7-0.6-1-1.3-1-2.3
			c0-1.1,0.5-2,1.4-2.6c1-0.7,2.1-1,3.4-1c1.1,0,2,0.2,2.9,0.7c0.8,0.5,1.5,1.2,1.8,2.1l-2,0.8c-0.4-1.1-1.4-1.6-2.8-1.6
			c-0.7,0-1.3,0.1-1.7,0.4c-0.5,0.3-0.7,0.7-0.7,1.1c0,0.7,0.5,1.2,1.6,1.4l2.4,0.6c1.1,0.3,2,0.7,2.5,1.4c0.5,0.6,0.8,1.4,0.8,2.2
			c0,1.1-0.4,2-1.3,2.7C201.6,52.6,200.5,52.9,199.1,52.9z"/>
	</g>
</g>
</svg>