<?xml version="1.0" encoding="UTF-8" standalone="no"?>
<svg width="4447px" height="369px" viewBox="0 0 4447 369" version="1.1" xmlns="http://www.w3.org/2000/svg" xmlns:xlink="http://www.w3.org/1999/xlink" xmlns:sketch="http://www.bohemiancoding.com/sketch/ns">
    <!-- Generator: Sketch 3.4 (15575) - http://www.bohemiancoding.com/sketch -->
    <title>DMS-Long-White</title>
    <desc>Created with Sketch.</desc>
    <defs></defs>
    <g id="Page-1" stroke="none" stroke-width="1" fill="none" fill-rule="evenodd" sketch:type="MSPage">
        <g id="DMS-Long-White" sketch:type="MSLayerGroup">
            <path d="M4405.33,207.341 C4428.17,207.341 4446.05,225.712 4446.05,248.556 C4446.05,270.405 4428.17,288.779 4405.33,288.779 C4382.98,288.779 4364.609,270.405 4364.609,248.556 C4364.609,225.712 4382.98,207.341 4405.33,207.341" id="Fill-1" fill="#F2AD39" sketch:type="MSShapeGroup"></path>
            <path d="M94.494,242.119 C138.692,242.119 175.65,214.686 175.65,156.007 C175.65,97.33 139.072,69.517 94.874,69.517 L52.581,69.517 L52.581,242.119 L94.494,242.119 L94.494,242.119 Z M0,290.89 L0,20.746 L96.779,20.746 C173.746,20.746 230.137,70.659 230.137,156.007 C230.137,241.356 173.365,290.89 96.398,290.89 L0,290.89 L0,290.89 Z" id="Fill-3" fill="#FFFFFF" sketch:type="MSShapeGroup"></path>
            <path d="M256.799,103.427 L307.475,103.427 L307.475,290.89 L256.799,290.89 L256.799,103.427 Z M281.947,10.458 C299.473,10.458 313.191,24.555 313.191,42.082 C313.191,58.848 299.473,72.945 281.947,72.945 C264.801,72.945 250.702,58.848 250.702,42.082 C250.702,24.555 264.801,10.458 281.947,10.458 L281.947,10.458 Z" id="Fill-4" fill="#FFFFFF" sketch:type="MSShapeGroup"></path>
            <path d="M465.594,191.444 C465.594,162.485 445.78,144.197 421.395,144.197 C396.247,144.197 376.435,162.485 376.435,191.444 C376.435,220.781 395.105,239.071 421.395,239.071 C447.304,239.071 465.594,220.401 465.594,191.444 L465.594,191.444 Z M371.1,288.985 C374.529,309.56 390.912,324.42 414.917,324.42 C446.924,324.42 464.831,308.417 464.831,272.219 L464.831,258.503 C457.21,270.695 439.683,282.508 412.632,282.508 C362.718,282.508 325.377,244.024 325.377,191.444 C325.377,141.91 361.194,99.998 412.632,99.998 C442.35,99.998 459.497,112.953 465.975,125.526 L465.975,103.427 L514.745,103.427 L514.745,270.695 C514.745,322.133 486.93,369 416.441,369 C365.003,369 330.712,336.993 325.377,301.178 L371.1,288.985 L371.1,288.985 Z" id="Fill-5" fill="#FFFFFF" sketch:type="MSShapeGroup"></path>
            <path d="M543.309,103.427 L593.984,103.427 L593.984,290.89 L543.309,290.89 L543.309,103.427 Z M568.457,10.458 C585.983,10.458 599.701,24.555 599.701,42.082 C599.701,58.848 585.983,72.945 568.457,72.945 C551.311,72.945 537.212,58.848 537.212,42.082 C537.212,24.555 551.311,10.458 568.457,10.458 L568.457,10.458 Z" id="Fill-6" fill="#FFFFFF" sketch:type="MSShapeGroup"></path>
            <path d="M687.711,103.427 L725.432,103.427 L725.432,148.388 L687.711,148.388 L687.711,226.878 C687.711,243.262 695.331,248.597 709.809,248.597 C715.906,248.597 722.765,247.834 725.432,247.073 L725.432,288.985 C720.86,290.89 711.715,293.557 696.855,293.557 C660.277,293.557 637.416,271.839 637.416,235.641 L637.416,148.388 L603.505,148.388 L603.505,103.427 L613.03,103.427 C632.844,103.427 641.988,90.472 641.988,73.708 L641.988,47.416 L687.711,47.416 L687.711,103.427" id="Fill-7" fill="#FFFFFF" sketch:type="MSShapeGroup"></path>
            <path d="M851.539,215.066 L851.539,206.684 L809.245,213.162 C796.291,215.066 786.003,222.305 786.003,236.785 C786.003,247.834 794.005,258.503 810.389,258.503 C831.726,258.503 851.539,248.215 851.539,215.066 L851.539,215.066 Z M791.338,183.06 L837.441,176.202 C848.11,174.678 851.539,169.343 851.539,162.867 C851.539,149.531 841.252,138.482 819.914,138.482 C797.815,138.482 785.623,152.579 784.099,168.963 L739.137,159.437 C742.186,130.098 769.239,97.711 819.534,97.711 C878.973,97.711 901.072,131.241 901.072,168.963 L901.072,261.17 C901.072,271.076 902.215,284.412 903.359,290.89 L856.873,290.89 C855.73,285.936 854.968,275.649 854.968,268.409 C845.443,283.269 827.535,296.224 799.72,296.224 C759.713,296.224 735.328,269.172 735.328,239.832 C735.328,206.303 760.094,187.633 791.338,183.06 L791.338,183.06 Z" id="Fill-8" fill="#FFFFFF" sketch:type="MSShapeGroup"></path>
            <path d="M929.256,15.029 L979.932,15.029 L979.932,290.89 L929.256,290.89 L929.256,15.029 Z" id="Fill-9" fill="#FFFFFF" sketch:type="MSShapeGroup"></path>
            <path d="M1353.93,288.87 L1353.93,99.504 L1276.2,288.87 L1232.38,288.87 L1154.66,101.026 L1154.66,288.87 L1104.36,288.87 L1104.36,18.726 L1173.71,18.726 L1254.86,213.81 L1334.12,18.726 L1405.75,18.726 L1405.75,288.87 L1353.93,288.87" id="Fill-10" fill="#FFFFFF" sketch:type="MSShapeGroup"></path>
            <path d="M1544.81,213.048 L1544.81,204.664 L1502.51,211.141 C1489.56,213.048 1479.27,220.287 1479.27,234.765 C1479.27,245.816 1487.27,256.485 1503.66,256.485 C1524.99,256.485 1544.81,246.195 1544.81,213.048 L1544.81,213.048 Z M1484.6,181.042 L1530.71,174.182 C1541.38,172.66 1544.81,167.325 1544.81,160.848 C1544.81,147.51 1534.52,136.462 1513.18,136.462 C1491.08,136.462 1478.89,150.558 1477.37,166.943 L1432.4,157.418 C1435.45,128.08 1462.51,95.692 1512.8,95.692 C1572.24,95.692 1594.34,129.223 1594.34,166.943 L1594.34,259.151 C1594.34,269.058 1595.48,282.393 1596.63,288.87 L1550.14,288.87 C1549,283.918 1548.23,273.629 1548.23,266.39 C1538.71,281.25 1520.8,294.205 1492.99,294.205 C1452.98,294.205 1428.59,267.151 1428.59,237.813 C1428.59,204.284 1453.36,185.612 1484.6,181.042 L1484.6,181.042 Z" id="Fill-11" fill="#FFFFFF" sketch:type="MSShapeGroup"></path>
            <path d="M1736.83,151.702 C1731.11,150.558 1726.16,150.179 1721.59,150.179 C1695.68,150.179 1673.2,162.752 1673.2,203.141 L1673.2,288.87 L1622.52,288.87 L1622.52,101.408 L1671.67,101.408 L1671.67,129.223 C1683.1,104.456 1709.01,99.883 1725.02,99.883 C1729.21,99.883 1733.02,100.265 1736.83,100.647 L1736.83,151.702" id="Fill-12" fill="#FFFFFF" sketch:type="MSShapeGroup"></path>
            <path d="M1856.46,180.278 L1933.04,288.87 L1870.94,288.87 L1821.4,217.239 L1800.45,239.338 L1800.45,288.87 L1749.77,288.87 L1749.77,13.01 L1800.45,13.01 L1800.45,171.135 L1865.22,101.408 L1931.52,101.408 L1856.46,180.278" id="Fill-13" fill="#FFFFFF" sketch:type="MSShapeGroup"></path>
            <path d="M2052.3,173.803 C2051.54,155.131 2039.34,136.842 2010.39,136.842 C1984.1,136.842 1969.62,156.657 1968.47,173.803 L2052.3,173.803 L2052.3,173.803 Z M2099.54,235.147 C2090.02,267.533 2060.3,294.587 2014.2,294.587 C1962.76,294.587 1917.42,257.625 1917.42,194.377 C1917.42,134.558 1961.61,95.692 2009.62,95.692 C2067.54,95.692 2102.21,132.651 2102.21,192.854 C2102.21,200.093 2101.45,207.714 2101.45,208.475 L1967.33,208.475 C1968.47,233.24 1989.43,251.15 2014.58,251.15 C2038.2,251.15 2051.15,239.338 2057.25,222.574 L2099.54,235.147 L2099.54,235.147 Z" id="Fill-14" fill="#FFFFFF" sketch:type="MSShapeGroup"></path>
            <path d="M2189.46,101.408 L2227.18,101.408 L2227.18,146.367 L2189.46,146.367 L2189.46,224.858 C2189.46,241.243 2197.08,246.577 2211.55,246.577 C2217.65,246.577 2224.51,245.816 2227.18,245.052 L2227.18,286.966 C2222.61,288.87 2213.46,291.536 2198.6,291.536 C2162.02,291.536 2139.16,269.819 2139.16,233.622 L2139.16,146.367 L2105.25,146.367 L2105.25,101.408 L2114.78,101.408 C2134.59,101.408 2143.73,88.453 2143.73,71.688 L2143.73,45.398 L2189.46,45.398 L2189.46,101.408" id="Fill-15" fill="#FFFFFF" sketch:type="MSShapeGroup"></path>
            <path d="M2247.36,101.408 L2298.03,101.408 L2298.03,288.87 L2247.36,288.87 L2247.36,101.408 Z M2272.51,8.438 C2290.03,8.438 2303.75,22.536 2303.75,40.063 C2303.75,56.828 2290.03,70.927 2272.51,70.927 C2255.36,70.927 2241.26,56.828 2241.26,40.063 C2241.26,22.536 2255.36,8.438 2272.51,8.438 L2272.51,8.438 Z" id="Fill-16" fill="#FFFFFF" sketch:type="MSShapeGroup"></path>
            <path d="M2379.95,288.87 L2329.27,288.87 L2329.27,101.408 L2378.42,101.408 L2378.42,124.65 C2389.86,105.217 2412.34,96.453 2432.53,96.453 C2479.02,96.453 2500.35,129.603 2500.35,170.753 L2500.35,288.87 L2449.68,288.87 L2449.68,179.517 C2449.68,158.561 2439.39,142.176 2415,142.176 C2392.9,142.176 2379.95,159.322 2379.95,181.042 L2379.95,288.87" id="Fill-17" fill="#FFFFFF" sketch:type="MSShapeGroup"></path>
            <path d="M2655.8,189.424 C2655.8,160.466 2635.99,142.176 2611.6,142.176 C2586.46,142.176 2566.64,160.466 2566.64,189.424 C2566.64,218.762 2585.31,237.052 2611.6,237.052 C2637.51,237.052 2655.8,218.38 2655.8,189.424 L2655.8,189.424 Z M2561.31,286.966 C2564.74,307.54 2581.12,322.399 2605.13,322.399 C2637.13,322.399 2655.04,306.396 2655.04,270.201 L2655.04,256.485 C2647.42,268.676 2629.89,280.488 2602.84,280.488 C2552.93,280.488 2515.59,242.004 2515.59,189.424 C2515.59,139.892 2551.4,97.978 2602.84,97.978 C2632.56,97.978 2649.71,110.934 2656.18,123.507 L2656.18,101.408 L2704.95,101.408 L2704.95,268.676 C2704.95,320.115 2677.14,366.979 2606.65,366.979 C2555.21,366.979 2520.92,334.975 2515.59,299.157 L2561.31,286.966 L2561.31,286.966 Z" id="Fill-18" fill="#FFFFFF" sketch:type="MSShapeGroup"></path>
            <path d="M2980.75,89.172 C2978.08,74.312 2965.89,51.07 2931.6,51.07 C2906.07,51.07 2889.3,67.455 2889.3,85.363 C2889.3,100.223 2898.83,112.035 2918.64,115.844 L2956.36,123.083 C3005.51,132.608 3031.8,164.615 3031.8,202.717 C3031.8,244.248 2997.13,286.162 2934.26,286.162 C2862.63,286.162 2831.01,240.057 2826.81,201.573 L2875.59,188.621 C2877.87,215.29 2896.54,239.296 2934.64,239.296 C2962.84,239.296 2978.46,225.197 2978.46,206.146 C2978.46,190.525 2966.65,178.331 2945.69,174.14 L2907.97,166.519 C2864.92,157.758 2837.1,129.942 2837.1,89.172 C2837.1,41.165 2880.16,4.586 2931.22,4.586 C2996.75,4.586 3021.9,44.213 3027.99,74.694 L2980.75,89.172" id="Fill-19" fill="#FFFFFF" sketch:type="MSShapeGroup"></path>
            <path d="M3140.77,134.133 C3114.86,134.133 3093.9,153.566 3093.9,186.713 C3093.9,219.863 3114.86,239.675 3140.77,239.675 C3166.68,239.675 3187.25,220.245 3187.25,186.713 C3187.25,153.566 3166.68,134.133 3140.77,134.133 L3140.77,134.133 Z M3043.99,352.841 L3043.99,92.984 L3093.14,92.984 L3093.14,115.844 C3101.52,101.366 3122.48,88.792 3150.67,88.792 C3205.54,88.792 3237.16,130.704 3237.16,186.334 C3237.16,243.105 3201.73,285.019 3148.77,285.019 C3122.86,285.019 3103.81,274.73 3094.66,262.156 L3094.66,352.841 L3043.99,352.841 L3043.99,352.841 Z" id="Fill-20" fill="#FFFFFF" sketch:type="MSShapeGroup"></path>
            <path d="M3382.71,165.378 C3381.95,146.707 3369.75,128.417 3340.79,128.417 C3314.5,128.417 3300.03,148.232 3298.88,165.378 L3382.71,165.378 L3382.71,165.378 Z M3429.95,226.723 C3420.43,259.108 3390.71,286.162 3344.6,286.162 C3293.17,286.162 3247.83,249.201 3247.83,185.952 C3247.83,126.133 3292.02,87.267 3340.03,87.267 C3397.95,87.267 3432.62,124.226 3432.62,184.429 C3432.62,191.668 3431.86,199.289 3431.86,200.051 L3297.74,200.051 C3298.88,224.816 3319.84,242.726 3344.99,242.726 C3368.61,242.726 3381.56,230.914 3387.66,214.149 L3429.95,226.723 L3429.95,226.723 Z" id="Fill-21" fill="#FFFFFF" sketch:type="MSShapeGroup"></path>
            <path d="M3493.96,186.713 C3493.96,220.624 3516.06,239.675 3541.96,239.675 C3567.88,239.675 3580.83,222.532 3585.02,208.051 L3629.6,222.911 C3621.22,254.156 3591.88,286.162 3541.96,286.162 C3486.72,286.162 3443.28,244.248 3443.28,186.713 C3443.28,128.799 3485.95,87.267 3540.44,87.267 C3591.5,87.267 3620.46,118.892 3628.46,150.519 L3583.12,165.758 C3578.54,150.137 3566.73,134.133 3541.58,134.133 C3515.67,134.133 3493.96,152.803 3493.96,186.713" id="Fill-22" fill="#FFFFFF" sketch:type="MSShapeGroup"></path>
            <path d="M3644.07,92.984 L3694.74,92.984 L3694.74,280.446 L3644.07,280.446 L3644.07,92.984 Z M3669.22,0.015 C3686.74,0.015 3700.46,14.111 3700.46,31.639 C3700.46,48.404 3686.74,62.502 3669.22,62.502 C3652.07,62.502 3637.97,48.404 3637.97,31.639 C3637.97,14.111 3652.07,0.015 3669.22,0.015 L3669.22,0.015 Z" id="Fill-23" fill="#FFFFFF" sketch:type="MSShapeGroup"></path>
            <path d="M3830.76,204.624 L3830.76,196.239 L3788.47,202.717 C3775.52,204.624 3765.23,211.863 3765.23,226.341 C3765.23,237.391 3773.23,248.06 3789.61,248.06 C3810.95,248.06 3830.76,237.771 3830.76,204.624 L3830.76,204.624 Z M3770.56,172.617 L3816.67,165.758 C3827.33,164.235 3830.76,158.901 3830.76,152.423 C3830.76,139.086 3820.48,128.038 3799.14,128.038 C3777.04,128.038 3764.85,142.134 3763.32,158.519 L3718.36,148.993 C3721.41,119.656 3748.46,87.267 3798.76,87.267 C3858.2,87.267 3880.3,120.799 3880.3,158.519 L3880.3,250.726 C3880.3,260.634 3881.44,273.968 3882.58,280.446 L3836.1,280.446 C3834.95,275.493 3834.19,265.204 3834.19,257.965 C3824.67,272.825 3806.76,285.78 3778.94,285.78 C3738.94,285.78 3714.55,258.726 3714.55,229.389 C3714.55,195.86 3739.32,177.188 3770.56,172.617 L3770.56,172.617 Z" id="Fill-24" fill="#FFFFFF" sketch:type="MSShapeGroup"></path>
            <path d="M3908.48,4.586 L3959.15,4.586 L3959.15,280.446 L3908.48,280.446 L3908.48,4.586 Z" id="Fill-25" fill="#FFFFFF" sketch:type="MSShapeGroup"></path>
            <path d="M3990.39,92.984 L4041.07,92.984 L4041.07,280.446 L3990.39,280.446 L3990.39,92.984 Z M4015.54,0.015 C4033.07,0.015 4046.79,14.111 4046.79,31.639 C4046.79,48.404 4033.07,62.502 4015.54,62.502 C3998.399,62.502 3984.3,48.404 3984.3,31.639 C3984.3,14.111 3998.399,0.015 4015.54,0.015 L4015.54,0.015 Z" id="Fill-26" fill="#FFFFFF" sketch:type="MSShapeGroup"></path>
            <path d="M4099.74,218.72 C4100.88,233.58 4111.93,247.296 4134.029,247.296 C4150.8,247.296 4158.8,238.535 4158.8,228.627 C4158.8,220.245 4153.09,213.385 4138.61,210.338 L4113.84,204.624 C4077.64,196.621 4061.26,174.904 4061.26,148.611 C4061.26,115.082 4090.98,87.267 4131.37,87.267 C4184.71,87.267 4202.62,121.178 4204.9,141.372 L4162.61,150.898 C4161.09,139.85 4153.09,125.751 4131.75,125.751 C4118.41,125.751 4107.74,133.752 4107.74,144.42 C4107.74,153.566 4114.6,159.28 4124.89,161.185 L4151.56,166.901 C4188.52,174.522 4207.189,197.003 4207.189,224.436 C4207.189,254.917 4183.57,286.162 4134.419,286.162 C4078.02,286.162 4058.59,249.583 4056.3,228.245 L4099.74,218.72" id="Fill-27" fill="#FFFFFF" sketch:type="MSShapeGroup"></path>
            <path d="M4295.2,92.984 L4332.92,92.984 L4332.92,137.943 L4295.2,137.943 L4295.2,216.433 C4295.2,232.818 4302.82,238.153 4317.3,238.153 C4323.4,238.153 4330.25,237.391 4332.92,236.628 L4332.92,278.541 C4328.35,280.446 4319.21,283.112 4304.35,283.112 C4267.77,283.112 4244.91,261.395 4244.91,225.197 L4244.91,137.943 L4210.99,137.943 L4210.99,92.984 L4220.52,92.984 C4240.33,92.984 4249.48,80.028 4249.48,63.264 L4249.48,36.974 L4295.2,36.974 L4295.2,92.984" id="Fill-28" fill="#FFFFFF" sketch:type="MSShapeGroup"></path>
        </g>
    </g>
</svg>