<?xml version="1.0" encoding="UTF-8" standalone="no"?>
<svg width="1651px" height="1005px" viewBox="0 0 1651 1005" version="1.1" xmlns="http://www.w3.org/2000/svg" xmlns:xlink="http://www.w3.org/1999/xlink" xmlns:sketch="http://www.bohemiancoding.com/sketch/ns">
    <!-- Generator: Sketch 3.4 (15575) - http://www.bohemiancoding.com/sketch -->
    <title>DMS-Stack-White</title>
    <desc>Created with Sketch.</desc>
    <defs></defs>
    <g id="Page-1" stroke="none" stroke-width="1" fill="none" fill-rule="evenodd" sketch:type="MSPage">
        <g id="DMS-Stack-White" sketch:type="MSLayerGroup">
            <path d="M113.443,230.717 C157.453,230.717 194.255,203.401 194.255,144.972 C194.255,86.544 157.832,58.848 113.822,58.848 L71.708,58.848 L71.708,230.717 L113.443,230.717 L113.443,230.717 Z M19.35,279.281 L19.35,10.284 L115.718,10.284 C192.358,10.284 248.51,59.985 248.51,144.972 C248.51,229.958 191.979,279.281 115.339,279.281 L19.35,279.281 L19.35,279.281 Z" id="Fill-1" fill="#FFFFFF" sketch:type="MSShapeGroup"></path>
            <path d="M275.059,92.615 L325.519,92.615 L325.519,279.281 L275.059,279.281 L275.059,92.615 Z M300.1,0.04 C317.551,0.04 331.211,14.077 331.211,31.53 C331.211,48.224 317.551,62.262 300.1,62.262 C283.026,62.262 268.988,48.224 268.988,31.53 C268.988,14.077 283.026,0.04 300.1,0.04 L300.1,0.04 Z" id="Fill-2" fill="#FFFFFF" sketch:type="MSShapeGroup"></path>
            <path d="M482.967,180.257 C482.967,151.422 463.237,133.211 438.955,133.211 C413.914,133.211 394.186,151.422 394.186,180.257 C394.186,209.47 412.777,227.682 438.955,227.682 C464.755,227.682 482.967,209.091 482.967,180.257 L482.967,180.257 Z M388.874,277.385 C392.288,297.872 408.602,312.669 432.505,312.669 C464.376,312.669 482.207,296.734 482.207,260.69 L482.207,247.032 C474.619,259.173 457.166,270.934 430.23,270.934 C380.528,270.934 343.346,232.614 343.346,180.257 C343.346,130.934 379.01,89.2 430.23,89.2 C459.822,89.2 476.896,102.1 483.346,114.62 L483.346,92.615 L531.909,92.615 L531.909,259.173 C531.909,310.392 504.212,357.059 434.023,357.059 C382.803,357.059 348.657,325.189 343.346,289.525 L388.874,277.385 L388.874,277.385 Z" id="Fill-3" fill="#FFFFFF" sketch:type="MSShapeGroup"></path>
            <path d="M560.352,92.615 L610.812,92.615 L610.812,279.281 L560.352,279.281 L560.352,92.615 Z M585.393,0.04 C602.844,0.04 616.504,14.077 616.504,31.53 C616.504,48.224 602.844,62.262 585.393,62.262 C568.319,62.262 554.281,48.224 554.281,31.53 C554.281,14.077 568.319,0.04 585.393,0.04 L585.393,0.04 Z" id="Fill-4" fill="#FFFFFF" sketch:type="MSShapeGroup"></path>
            <path d="M704.14,92.615 L741.701,92.615 L741.701,137.384 L704.14,137.384 L704.14,215.542 C704.14,231.856 711.728,237.168 726.145,237.168 C732.216,237.168 739.045,236.408 741.701,235.65 L741.701,277.385 C737.149,279.281 728.043,281.937 713.246,281.937 C676.823,281.937 654.059,260.311 654.059,224.267 L654.059,137.384 L620.292,137.384 L620.292,92.615 L629.777,92.615 C649.506,92.615 658.611,79.715 658.611,63.021 L658.611,36.842 L704.14,36.842 L704.14,92.615" id="Fill-5" fill="#FFFFFF" sketch:type="MSShapeGroup"></path>
            <path d="M867.272,203.78 L867.272,195.433 L825.159,201.883 C812.26,203.78 802.015,210.988 802.015,225.406 C802.015,236.408 809.983,247.032 826.297,247.032 C847.544,247.032 867.272,236.787 867.272,203.78 L867.272,203.78 Z M807.327,171.909 L853.235,165.08 C863.858,163.563 867.272,158.251 867.272,151.802 C867.272,138.523 857.029,127.52 835.782,127.52 C813.777,127.52 801.636,141.558 800.119,157.872 L755.348,148.387 C758.384,119.172 785.322,86.923 835.403,86.923 C894.59,86.923 916.595,120.311 916.595,157.872 L916.595,249.687 C916.595,259.552 917.733,272.831 918.872,279.281 L872.584,279.281 C871.445,274.348 870.687,264.105 870.687,256.896 C861.202,271.692 843.371,284.593 815.673,284.593 C775.837,284.593 751.555,257.655 751.555,228.441 C751.555,195.054 776.216,176.463 807.327,171.909 L807.327,171.909 Z" id="Fill-6" fill="#FFFFFF" sketch:type="MSShapeGroup"></path>
            <path d="M944.66,4.592 L995.12,4.592 L995.12,279.281 L944.66,279.281 L944.66,4.592 Z" id="Fill-7" fill="#FFFFFF" sketch:type="MSShapeGroup"></path>
            <path d="M267.859,606.099 L267.859,417.537 L190.462,606.099 L146.829,606.099 L69.432,419.053 L69.432,606.099 L19.35,606.099 L19.35,337.103 L88.402,337.103 L169.215,531.357 L248.13,337.103 L319.458,337.103 L319.458,606.099 L267.859,606.099" id="Fill-8" fill="#FFFFFF" sketch:type="MSShapeGroup"></path>
            <path d="M457.924,530.599 L457.924,522.25 L415.811,528.7 C402.912,530.599 392.667,537.807 392.667,552.224 C392.667,563.228 400.635,573.851 416.949,573.851 C438.196,573.851 457.924,563.605 457.924,530.599 L457.924,530.599 Z M397.979,498.729 L443.887,491.898 C454.51,490.382 457.924,485.07 457.924,478.62 C457.924,465.34 447.681,454.338 426.434,454.338 C404.429,454.338 392.288,468.375 390.771,484.69 L346,475.205 C349.036,445.992 375.974,413.741 426.055,413.741 C485.242,413.741 507.247,447.13 507.247,484.69 L507.247,576.506 C507.247,586.371 508.386,599.649 509.524,606.099 L463.236,606.099 C462.098,601.168 461.339,590.922 461.339,583.714 C451.854,598.511 434.023,611.411 406.326,611.411 C366.489,611.411 342.207,584.472 342.207,555.259 C342.207,521.872 366.868,503.28 397.979,498.729 L397.979,498.729 Z" id="Fill-9" fill="#FFFFFF" sketch:type="MSShapeGroup"></path>
            <path d="M649.131,469.513 C643.44,468.375 638.508,467.997 633.955,467.997 C608.156,467.997 585.771,480.517 585.771,520.734 L585.771,606.099 L535.311,606.099 L535.311,419.433 L584.253,419.433 L584.253,447.13 C595.636,422.468 621.435,417.914 637.371,417.914 C641.544,417.914 645.338,418.295 649.131,418.675 L649.131,469.513" id="Fill-10" fill="#FFFFFF" sketch:type="MSShapeGroup"></path>
            <path d="M768.253,497.968 L844.513,606.099 L782.67,606.099 L733.348,534.772 L712.48,556.777 L712.48,606.099 L662.02,606.099 L662.02,331.411 L712.48,331.411 L712.48,488.863 L776.979,419.433 L842.995,419.433 L768.253,497.968" id="Fill-11" fill="#FFFFFF" sketch:type="MSShapeGroup"></path>
            <path d="M963.261,491.521 C962.503,472.928 950.362,454.716 921.526,454.716 C895.348,454.716 880.93,474.447 879.792,491.521 L963.261,491.521 L963.261,491.521 Z M1010.31,552.604 C1000.82,584.852 971.229,611.791 925.321,611.791 C874.101,611.791 828.953,574.987 828.953,512.007 C828.953,452.442 872.963,413.741 920.768,413.741 C978.437,413.741 1012.96,450.543 1012.96,510.491 C1012.96,517.699 1012.2,525.287 1012.2,526.045 L878.654,526.045 C879.792,550.705 900.66,568.539 925.7,568.539 C949.224,568.539 962.123,556.777 968.194,540.084 L1010.31,552.604 L1010.31,552.604 Z" id="Fill-12" fill="#FFFFFF" sketch:type="MSShapeGroup"></path>
            <path d="M1099.84,419.433 L1137.4,419.433 L1137.4,464.201 L1099.84,464.201 L1099.84,542.358 C1099.84,558.674 1107.43,563.986 1121.84,563.986 C1127.91,563.986 1134.74,563.228 1137.4,562.467 L1137.4,604.203 C1132.85,606.099 1123.74,608.754 1108.94,608.754 C1072.52,608.754 1049.76,587.129 1049.76,551.085 L1049.76,464.201 L1015.99,464.201 L1015.99,419.433 L1025.47,419.433 C1045.2,419.433 1054.31,406.533 1054.31,389.84 L1054.31,363.661 L1099.84,363.661 L1099.84,419.433" id="Fill-13" fill="#FFFFFF" sketch:type="MSShapeGroup"></path>
            <path d="M1157.49,419.433 L1207.95,419.433 L1207.95,606.099 L1157.49,606.099 L1157.49,419.433 Z M1182.54,326.858 C1199.99,326.858 1213.65,340.896 1213.65,358.348 C1213.65,375.043 1199.99,389.081 1182.54,389.081 C1165.46,389.081 1151.42,375.043 1151.42,358.348 C1151.42,340.896 1165.46,326.858 1182.54,326.858 L1182.54,326.858 Z" id="Fill-14" fill="#FFFFFF" sketch:type="MSShapeGroup"></path>
            <path d="M1289.52,606.099 L1239.06,606.099 L1239.06,419.433 L1288,419.433 L1288,442.577 C1299.39,423.226 1321.77,414.499 1341.88,414.499 C1388.17,414.499 1409.41,447.508 1409.41,488.483 L1409.41,606.099 L1358.95,606.099 L1358.95,497.21 C1358.95,476.343 1348.71,460.028 1324.43,460.028 C1302.42,460.028 1289.52,477.102 1289.52,498.729 L1289.52,606.099" id="Fill-15" fill="#FFFFFF" sketch:type="MSShapeGroup"></path>
            <path d="M1564.2,507.075 C1564.2,478.24 1544.47,460.028 1520.19,460.028 C1495.15,460.028 1475.42,478.24 1475.42,507.075 C1475.42,536.289 1494.01,554.501 1520.19,554.501 C1545.99,554.501 1564.2,535.908 1564.2,507.075 L1564.2,507.075 Z M1470.11,604.203 C1473.52,624.689 1489.84,639.486 1513.74,639.486 C1545.61,639.486 1563.44,623.551 1563.44,587.509 L1563.44,573.851 C1555.85,585.991 1538.4,597.753 1511.47,597.753 C1461.76,597.753 1424.58,559.432 1424.58,507.075 C1424.58,457.754 1460.25,416.018 1511.47,416.018 C1541.06,416.018 1558.13,428.918 1564.58,441.438 L1564.58,419.433 L1613.15,419.433 L1613.15,585.991 C1613.15,637.212 1585.45,683.876 1515.26,683.876 C1464.04,683.876 1429.89,652.008 1424.58,616.342 L1470.11,604.203 L1470.11,604.203 Z" id="Fill-16" fill="#FFFFFF" sketch:type="MSShapeGroup"></path>
            <path d="M153.28,742.456 C150.624,727.659 138.483,704.516 104.337,704.516 C78.917,704.516 62.223,720.831 62.223,738.663 C62.223,753.46 71.708,765.221 91.437,769.014 L128.998,776.223 C177.94,785.708 204.12,817.578 204.12,855.518 C204.12,896.874 169.594,938.609 106.993,938.609 C35.665,938.609 4.175,892.7 0,854.38 L48.564,841.482 C50.841,868.038 69.432,891.942 107.372,891.942 C135.448,891.942 151.003,877.904 151.003,858.933 C151.003,843.379 139.242,831.236 118.374,827.063 L80.813,819.475 C37.942,810.75 10.244,783.053 10.244,742.456 C10.244,694.653 53.117,658.229 103.958,658.229 C169.215,658.229 194.255,697.688 200.326,728.039 L153.28,742.456" id="Fill-17" fill="#FFFFFF" sketch:type="MSShapeGroup"></path>
            <path d="M312.617,787.226 C286.818,787.226 265.952,806.577 265.952,839.583 C265.952,872.592 286.818,892.32 312.617,892.32 C338.418,892.32 358.906,872.972 358.906,839.583 C358.906,806.577 338.418,787.226 312.617,787.226 L312.617,787.226 Z M216.249,1005 L216.249,746.251 L265.192,746.251 L265.192,769.014 C273.539,754.598 294.407,742.078 322.483,742.078 C377.116,742.078 408.608,783.811 408.608,839.205 C408.608,895.735 373.322,937.471 320.585,937.471 C294.786,937.471 275.816,927.225 266.71,914.705 L266.71,1005 L216.249,1005 L216.249,1005 Z" id="Fill-18" fill="#FFFFFF" sketch:type="MSShapeGroup"></path>
            <path d="M553.532,818.339 C552.773,799.746 540.633,781.534 511.797,781.534 C485.619,781.534 471.201,801.265 470.063,818.339 L553.532,818.339 L553.532,818.339 Z M600.578,879.422 C591.093,911.67 561.499,938.609 515.591,938.609 C464.372,938.609 419.223,901.805 419.223,838.825 C419.223,779.26 463.233,740.559 511.039,740.559 C568.707,740.559 603.234,777.361 603.234,837.309 C603.234,844.517 602.474,852.106 602.474,852.864 L468.924,852.864 C470.063,877.523 490.93,895.358 515.97,895.358 C539.494,895.358 552.393,883.596 558.464,866.902 L600.578,879.422 L600.578,879.422 Z" id="Fill-19" fill="#FFFFFF" sketch:type="MSShapeGroup"></path>
            <path d="M664.308,839.583 C664.308,873.35 686.313,892.32 712.113,892.32 C737.913,892.32 750.812,875.249 754.985,860.83 L799.376,875.627 C791.029,906.739 761.815,938.609 712.113,938.609 C657.1,938.609 613.848,896.874 613.848,839.583 C613.848,781.915 656.341,740.559 710.595,740.559 C761.436,740.559 790.27,772.049 798.237,803.542 L753.089,818.716 C748.535,803.162 736.775,787.226 711.734,787.226 C685.934,787.226 664.308,805.816 664.308,839.583" id="Fill-20" fill="#FFFFFF" sketch:type="MSShapeGroup"></path>
            <path d="M813.782,746.251 L864.242,746.251 L864.242,932.917 L813.782,932.917 L813.782,746.251 Z M838.823,653.678 C856.275,653.678 869.934,667.714 869.934,685.168 C869.934,701.861 856.275,715.9 838.823,715.9 C821.75,715.9 807.711,701.861 807.711,685.168 C807.711,667.714 821.75,653.678 838.823,653.678 L838.823,653.678 Z" id="Fill-21" fill="#FFFFFF" sketch:type="MSShapeGroup"></path>
            <path d="M999.684,857.417 L999.684,849.068 L957.57,855.518 C944.671,857.417 934.427,864.626 934.427,879.042 C934.427,890.046 942.394,900.669 958.709,900.669 C979.956,900.669 999.684,890.424 999.684,857.417 L999.684,857.417 Z M939.739,825.547 L985.646,818.716 C996.27,817.2 999.684,811.889 999.684,805.438 C999.684,792.158 989.441,781.157 968.194,781.157 C946.189,781.157 934.048,795.193 932.53,811.508 L887.76,802.023 C890.796,772.81 917.733,740.559 967.815,740.559 C1027,740.559 1049.01,773.948 1049.01,811.508 L1049.01,903.324 C1049.01,913.189 1050.15,926.467 1051.28,932.917 L1005,932.917 C1003.86,927.986 1003.1,917.74 1003.1,910.532 C993.614,925.329 975.782,938.229 948.085,938.229 C908.248,938.229 883.967,911.29 883.967,882.077 C883.967,848.69 908.628,830.098 939.739,825.547 L939.739,825.547 Z" id="Fill-22" fill="#FFFFFF" sketch:type="MSShapeGroup"></path>
            <path d="M1077.07,658.229 L1127.53,658.229 L1127.53,932.917 L1077.07,932.917 L1077.07,658.229 Z" id="Fill-23" fill="#FFFFFF" sketch:type="MSShapeGroup"></path>
            <path d="M1158.64,746.251 L1209.1,746.251 L1209.1,932.917 L1158.64,932.917 L1158.64,746.251 Z M1183.68,653.678 C1201.13,653.678 1214.79,667.714 1214.79,685.168 C1214.79,701.861 1201.13,715.9 1183.68,715.9 C1166.6,715.9 1152.57,701.861 1152.57,685.168 C1152.57,667.714 1166.6,653.678 1183.68,653.678 L1183.68,653.678 Z" id="Fill-24" fill="#FFFFFF" sketch:type="MSShapeGroup"></path>
            <path d="M1267.52,871.453 C1268.66,886.25 1279.66,899.909 1301.67,899.909 C1318.36,899.909 1326.33,891.184 1326.33,881.319 C1326.33,872.972 1320.64,866.142 1306.22,863.107 L1281.56,857.417 C1245.52,849.448 1229.2,827.824 1229.2,801.643 C1229.2,768.256 1258.79,740.559 1299.01,740.559 C1352.13,740.559 1369.96,774.326 1372.24,794.435 L1330.12,803.92 C1328.6,792.918 1320.64,778.88 1299.39,778.88 C1286.11,778.88 1275.49,786.846 1275.49,797.47 C1275.49,806.577 1282.32,812.266 1292.56,814.163 L1319.12,819.855 C1355.92,827.443 1374.51,849.829 1374.51,877.146 C1374.51,907.497 1350.99,938.609 1302.05,938.609 C1245.89,938.609 1226.55,902.185 1224.27,880.938 L1267.52,871.453" id="Fill-25" fill="#FFFFFF" sketch:type="MSShapeGroup"></path>
            <path d="M1462.15,746.251 L1499.71,746.251 L1499.71,791.019 L1462.15,791.019 L1462.15,869.177 C1462.15,885.492 1469.74,890.804 1484.15,890.804 C1490.22,890.804 1497.05,890.046 1499.71,889.285 L1499.71,931.021 C1495.16,932.917 1486.05,935.572 1471.25,935.572 C1434.83,935.572 1412.07,913.947 1412.07,877.904 L1412.07,791.019 L1378.3,791.019 L1378.3,746.251 L1387.79,746.251 C1407.52,746.251 1416.62,733.351 1416.62,716.658 L1416.62,690.479 L1462.15,690.479 L1462.15,746.251" id="Fill-26" fill="#FFFFFF" sketch:type="MSShapeGroup"></path>
            <path d="M1609.62,852.208 C1632.46,852.208 1650.34,870.579 1650.34,893.423 C1650.34,915.272 1632.46,933.646 1609.62,933.646 C1587.28,933.646 1568.9,915.272 1568.9,893.423 C1568.9,870.579 1587.28,852.208 1609.62,852.208" id="Fill-27" fill="#F2AD39" sketch:type="MSShapeGroup"></path>
        </g>
    </g>
</svg>