<svg width="365" height="216" viewBox="0 0 365 216" xmlns="http://www.w3.org/2000/svg">
  <title>
    Achilles
  </title>
  <g fill="none" fill-rule="evenodd">
    <path d="M40.17 110.065l35.93 78.14H63.158L51.33 162.753H18.522l-12.05 25.452H0l36.823-78.14h3.348zm-19.415 47.777h28.12L35.037 127.48 20.755 157.84zM102.66 189.544c-3.795 0-7.59-.67-10.937-2.232-3.347-1.563-6.25-3.572-8.927-6.252-2.455-2.68-4.463-5.804-6.025-9.376-1.338-3.572-2.23-7.368-2.23-11.386 0-4.465.892-8.707 2.454-12.503 1.562-4.018 3.794-7.367 6.472-10.27 2.678-2.902 6.025-5.134 9.82-6.92 3.793-1.786 7.587-2.456 11.827-2.456 3.348 0 6.25.445 9.15 1.115 2.678.67 5.133 1.786 7.142 2.902 2.008 1.34 3.57 2.68 4.686 4.466 1.117 1.786 1.787 3.572 1.787 5.58 0 .894-.223 1.787-.67 2.457-.446.893-1.116 1.563-1.785 2.01-.67.67-1.562 1.115-2.455 1.34-.893.445-1.785.445-2.9.445-1.117 0-2.01-.223-2.902-.446-.893-.448-1.563-.894-2.232-1.564-.67-.67-1.116-1.34-1.34-2.01-.222-.67-.445-1.562-.445-2.455 0-1.34-.224-2.678-.447-3.795-.222-1.116-.89-2.232-1.56-3.125-.67-.893-1.786-1.563-3.125-2.01-1.34-.446-2.902-.67-4.91-.67-2.678 0-5.133.447-7.142 1.563-2.008 1.117-3.793 2.456-5.356 4.466-1.562 2.008-2.678 4.017-3.347 6.473-.67 2.456-1.116 5.135-1.116 7.814 0 3.795.446 7.367 1.562 10.716.893 3.35 2.455 6.25 4.24 8.93 1.786 2.456 4.017 4.466 6.472 6.028 2.455 1.564 5.356 2.234 8.48 2.234 2.68 0 5.134-.447 7.142-1.34 2.01-.893 3.794-2.01 5.356-3.572 1.563-1.562 2.678-3.125 3.794-5.135s2.01-4.018 2.9-6.25l3.572 1.562c-.892 3.794-2.232 6.92-4.017 10.046-1.785 2.902-3.57 5.358-6.025 7.367-2.455 2.01-4.91 3.572-7.81 4.688-2.68 1.118-5.804 1.564-9.15 1.564zM148.41 140.205c3.57-4.02 7.14-6.92 11.157-8.93 3.794-2.01 7.81-2.903 11.828-2.903 2.01 0 4.017.447 5.803 1.34 1.785.893 3.347 2.232 4.686 3.795 1.34 1.563 2.455 3.572 3.125 5.58.668 2.234 1.114 4.466 1.114 6.922v42.418H174.52v-40.41c0-3.795-.893-6.92-2.68-8.93-1.784-2.01-4.016-3.125-6.917-3.125-2.455 0-5.133.893-8.034 2.456-2.902 1.56-5.803 3.57-8.48 6.25v43.758h-11.606v-85.954l8.257-3.348h3.35v41.08zM196.39 131.498l8.258-3.35h3.347v60.057H196.39M230.535 188.428H218.93v-85.954l8.258-3.348h3.347M253.076 188.428H241.47v-85.954l8.258-3.348h3.348M289.452 189.544c-4.017 0-7.81-.67-11.158-2.232-3.57-1.563-6.472-3.572-9.15-6.028-2.678-2.456-4.687-5.582-6.25-9.154-1.56-3.35-2.23-7.144-2.23-11.163 0-4.688.67-9.153 2.008-13.172 1.34-4.018 3.348-7.367 5.802-10.493 2.455-2.902 5.58-5.135 9.15-6.92 3.57-1.787 7.588-2.456 11.828-2.456 3.794 0 7.365.67 10.713 2.01 3.124 1.338 6.025 3.124 8.257 5.357 2.232 2.233 4.017 4.912 5.356 7.814 1.34 2.902 2.01 6.028 2.01 9.377H271.82c0 4.018.446 7.59 1.562 10.94 1.116 3.348 2.455 6.25 4.24 8.706 1.786 2.456 4.017 4.465 6.696 5.805 2.454 1.34 5.356 2.01 8.48 2.01 2.455 0 4.91-.447 7.365-1.117 2.23-.893 4.463-2.01 6.248-3.35 1.786-1.338 3.57-2.9 4.91-4.687 1.34-1.785 2.232-3.57 2.9-5.357l3.35 1.562c-.894 2.903-2.233 5.805-4.018 8.484-1.785 2.678-4.017 4.91-6.695 6.92-2.455 2.01-5.356 3.572-8.258 4.688-3.124 2.01-6.025 2.456-9.15 2.456zm11.605-41.302c0-2.233-.446-4.242-1.116-6.25-.89-2.01-1.784-3.573-3.346-4.913-1.34-1.34-2.9-2.457-4.91-3.35-1.785-.893-3.794-1.116-6.025-1.116-1.787 0-3.572.446-5.134 1.116-1.563.893-3.125 1.786-4.24 3.35-1.34 1.34-2.232 3.125-3.125 4.91-.892 2.01-1.338 4.02-1.56 6.252h29.457zM341.674 185.526c1.563 0 3.125-.224 4.464-.67 1.34-.447 2.455-1.116 3.57-2.01.893-.893 1.786-1.786 2.232-2.902.447-1.116.893-2.232.893-3.125 0-1.787-.446-3.35-1.34-4.69-.892-1.34-2.008-2.456-3.57-3.572-1.562-1.116-3.124-2.01-5.133-2.902-1.785-.893-3.794-1.786-5.802-2.68-2.01-.892-3.794-2.01-5.803-2.902-1.785-1.116-3.57-2.232-5.133-3.795-1.562-1.564-2.678-3.127-3.57-4.913-.893-1.786-1.34-4.018-1.34-6.474 0-2.456.447-4.465 1.563-6.474.893-2.01 2.455-3.797 4.24-5.136 1.785-1.563 4.017-2.68 6.472-3.35 2.455-.892 5.133-1.34 8.034-1.34 2.01 0 3.795.225 5.58.448 1.786.223 3.348.893 4.91 1.563 1.562.893 3.348 2.01 4.91 3.348 1.562 1.34 3.348 3.35 5.133 5.582l-4.24 3.795c-2.232-3.572-4.687-6.474-7.365-8.26-2.678-1.786-5.802-2.68-8.927-2.68-1.56 0-3.123.224-4.462.67-1.34.447-2.455.893-3.57 1.787-.894.67-1.786 1.562-2.233 2.455-.446.893-.892 2.01-.892 3.126 0 1.786.446 3.35 1.562 4.688.893 1.34 2.232 2.456 3.794 3.572 1.56 1.117 3.57 2.01 5.578 2.903 2.01.894 4.24 1.787 6.25 2.68 2.23.893 4.24 2.01 6.248 3.125 2.008 1.117 3.794 2.233 5.58 3.796 1.56 1.34 2.9 3.126 3.793 4.912.89 1.786 1.56 4.02 1.56 6.475 0 2.456-.445 4.91-1.338 6.92-.893 2.233-2.232 4.02-4.24 5.582-1.786 1.562-4.24 2.9-7.142 3.794-2.9.893-6.025 1.34-9.82 1.34-1.785 0-3.57-.223-5.355-.447-1.786-.223-3.57-.893-5.58-1.562-1.785-.893-3.794-2.01-5.58-3.35-1.784-1.34-3.57-3.348-5.355-5.58l4.687-4.242c1.34 2.01 2.9 3.795 4.017 5.134 1.34 1.34 2.678 2.68 4.017 3.573 1.34.893 2.68 1.562 4.24 2.01 1.34-.448 2.902-.224 4.464-.224z" fill="#454143"/>
    <g fill="#D4222B">
      <path d="M216.03 58.047c6.025-9.6 6.025-20.094 0-31.48C209.78 15.18 205.986 6.25 204.647 0v85.284c.67-5.805 4.463-14.958 11.38-27.237M199.29 37.507c-.222 4.242-3.792 13.395-10.934 27.014-6.472 12.28-6.25 23.22.67 32.82 2.454 4.465 6.025 13.395 10.042 26.79V37.507h.223z"/>
    </g>
  </g>
</svg>