<svg xmlns="http://www.w3.org/2000/svg" viewBox="0 0 300 90">
  <path fill="#878787" d="M109.4 47.6V21.7h8.9c7.9 0 12.7 4.3 12.7 13 0 8.6-4.8 13-12.7 13h-8.9zm9.1-2.1c5.7 0 10.3-3.2 10.3-10.9 0-7.8-4.4-10.9-10.5-10.9h-6.7v21.8h6.9zM135 36.8V21.7h2.3v14.9c0 6.5 2.4 9.6 8.1 9.6 5.8 0 8.2-3.1 8.2-9.6V21.7h2.3v15.1c0 8.4-4 11.3-10.5 11.3-6.4 0-10.4-2.9-10.4-11.3zM177.3 47.6L167.9 35l-4 4.6v7.9h-2.2V21.7h2.2v15l12-15h2.7l-9.3 11.6 10.9 14.3h-2.9zM183.2 47.6V21.7h16.4v2.1h-14.1v9.7h13.1v2.1h-13.1v10h14.4v2.1h-16.7zM220.2 23.8l-.9 1.8c-1.8-1.2-4.7-2.2-7.3-2.2-2.8 0-5.4 1-6.1 3.8-.6 3 2 4.1 4.5 5.1l6.7 2.6c3.7 1.4 4.5 4 4.5 5.7-.1 4.7-4.1 7.4-8.7 7.4-3.5 0-7-1-10-3.3.3-.5.7-1.3 1-1.8 2.1 1.6 5.5 3 8.8 3 2.6 0 5.7-1.2 6.3-4 .6-2.5-.8-4.1-3.1-5.1l-7.8-2.9c-3.1-1.2-5-3.5-4.6-7 .5-3.4 3.9-5.8 8.5-5.8 2.9.2 5.9.9 8.2 2.7zM109.4 80.8V54.9h16.4V57h-14.1v9.7h13.1v2.1h-13.1v10h14.4v2.1h-16.7zM130.2 80.8V54.9h8.9c7.9 0 12.7 4.3 12.7 13 0 8.6-4.8 13-12.7 13h-8.9zm9.1-2.1c5.7 0 10.3-3.2 10.3-10.9 0-7.8-4.4-10.9-10.5-10.9h-6.7v21.8h6.9zM155 70.1V54.9h2.3v14.9c0 6.5 2.4 9.6 8.1 9.6 5.8 0 8.2-3.1 8.2-9.6V54.9h2.3V70c0 8.4-4 11.3-10.5 11.3-6.4 0-10.4-2.9-10.4-11.2zM191.9 54.5c2.5 0 5.4.3 7.2 1.1-.2.7-.5 1.2-.7 1.7-2.3-.7-4.9-.7-5.5-.7-8.3 0-11.3 5.8-11.3 11.3 0 5.5 3 11.3 11.3 11.3 1.2 0 3.2 0 5.6-.7.2.7.5 1.2.7 1.7-1.8.8-4.7 1.1-7.2 1.1-7.9 0-12.7-6-12.7-13.4-.2-7.4 4.7-13.4 12.6-13.4zM199.7 80.8l10.8-25.9h2.7L224 80.8h-2.3l-2.6-6.3h-14.4l-2.5 6.3h-2.5zm5.7-8.4h12.9L211.8 57l-6.4 15.4zM231.6 57v23.8h-2.2V57h-8.6v-2.1h19.5V57h-8.7zM243.7 54.9h2.2v25.9h-2.2V54.9zM250.2 67.9c0-8.4 4.7-13.4 12.2-13.4 7.5 0 12.2 5 12.2 13.4s-4.6 13.5-12.2 13.5c-7.5-.1-12.2-5.1-12.2-13.5zm2.5 0c0 6.5 3.2 11.5 9.8 11.5 6.6 0 9.8-5 9.8-11.5 0-6.1-3.2-11.4-9.8-11.4-6.6 0-9.8 5.3-9.8 11.4zM280.9 57.6v23.2h-2.2V54.9h3.1L296.5 78V54.9h2.2v25.9H296l-15.1-23.2z"/>
  <path fill="#8064A9" d="M49.1 80.7c0-.1 0-.1 0 0 0-.1 0-.1 0 0H49 15.4s.1 0 .2-.1c3.9-2.1 5-5.2 3.4-9.2L0 21.7l22.5.1c2.6.1 5.1.3 7.6.7.1 0 .1 0 .2-.1C34.1 12.6 40.8 5 49.1 1.2 57.3 5 64 12.6 67.9 22.4c0 .1.1.1.2.1 2.4-.4 5-.6 7.6-.7l22.5-.1-19 49.6c-1.6 4.1-.4 7.2 3.4 9.2.1 0 .1.1.2.1H49.1zm25.1-52.2c-1.3 0-2.7.1-4.1.3 0 0-.1 0-.1.1v.1c.9 3.9 1.4 7.9 1.4 11.9 0 11.8-3.8 22.8-10.8 30.9-1.3 1.9-2.9 3.4-4.7 4.6-.2.2-.4.3-.6.5-.1 0-.1.1-.1.2s0 .1.1.1c1 .3 1.9.4 2.9.4 3.7 0 7.6-2.1 11.6-6.3.9-.9 2.2-2.8 3.5-5 1-1.8 2.1-3.9 2.5-5C83 43.6 88.2 29 88.3 28.8v-.2l-.1-.1c-.1.1-14 0-14 0zm-64.2.1c-.1 0-.1 0-.1.1v.2c.1.1 5.3 14.8 12.6 32.6.5 1.1 1.5 3.2 2.5 5 1.3 2.2 2.6 4.1 3.5 5 4 4.2 7.9 6.3 11.6 6.3 1 0 2-.2 2.9-.4.1 0 .1-.1.1-.1 0-.1 0-.1-.1-.2-.2-.2-.4-.3-.6-.5-1.8-1.1-3.4-2.7-4.7-4.6-7-8.1-10.8-19.1-10.8-30.9 0-4 .5-8 1.4-11.9v-.1l-.1-.1c-1.4-.2-2.8-.3-4.1-.3L10 28.6zm39.1 10.8s-.1 0-.1.1c-4 4.4-6.7 9.7-8 16-1 4.7-.3 8.8 1.9 12.2 1.9 2.1 3.9 3.9 6.1 5.3h.2c2.2-1.4 4.2-3.1 6.1-5.2 2.2-3.4 2.9-7.5 1.9-12.2-1.3-6.2-4-11.6-8-16 0-.1-.1-.2-.1-.2zm14.2-9.1c-3.1 1-6 2.4-8.7 4.2l-.1.1v.1c4.1 4.5 6.9 10 8.6 16.4 0 .1.1.1.2.1s.1-.1.2-.1c.8-3.4 1.2-6.9 1.2-10.3 0-3.5-.4-7-1.2-10.4 0 0 0-.1-.2-.1.1 0 .1 0 0 0zm-28.5 0s-.1 0 0 0c-.1 0-.2.1-.2.1-.8 3.4-1.2 6.9-1.2 10.4s.4 7 1.2 10.3c0 .1.1.1.2.1s.1-.1.2-.1c1.6-6.4 4.5-12 8.6-16.4v-.1s0-.1-.1-.1c-2.7-1.7-5.6-3.2-8.7-4.2zM49.1 8.8c-.1 0-.1 0 0 0-5.3 3.3-9.5 8.5-12.3 15v.1l.1.1c4.5 1.3 8.6 3.3 12.1 5.7h.2c3.5-2.5 7.5-4.4 12.1-5.7 0 0 .1 0 .1-.1v-.1c-2.9-6.5-7.1-11.7-12.3-15z"/>
</svg>

