<svg version="1.1" id="Layer_1" xmlns="http://www.w3.org/2000/svg" xmlns:xlink="http://www.w3.org/1999/xlink" x="0px" y="0px"
	 viewBox="0 0 300 90" enable-background="new 0 0 300 90" xml:space="preserve">
<path fill="#878787" d="M109.4,47.6V21.7h8.9c7.9,0,12.7,4.3,12.7,13c0,8.6-4.8,13-12.7,13H109.4z M118.5,45.5
	c5.7,0,10.3-3.2,10.3-10.9c0-7.8-4.4-10.9-10.5-10.9h-6.7v21.8H118.5z"/>
<path fill="#878787" d="M135,36.8V21.7h2.3v14.9c0,6.5,2.4,9.6,8.1,9.6c5.8,0,8.2-3.1,8.2-9.6V21.7h2.3v15.1c0,8.4-4,11.3-10.5,11.3
	C139,48.1,135,45.2,135,36.8z"/>
<path fill="#878787" d="M177.3,47.6L167.9,35l-4,4.6v7.9h-2.2V21.7h2.2v15l12-15h2.7l-9.3,11.6l10.9,14.3H177.3z"/>
<path fill="#878787" d="M183.2,47.6V21.7h16.4v2.1h-14.1v9.7h13.1v2.1h-13.1v10h14.4v2.1H183.2z"/>
<path fill="#878787" d="M220.2,23.8l-0.9,1.8c-1.8-1.2-4.7-2.2-7.3-2.2c-2.8,0-5.4,1-6.1,3.8c-0.6,3,2,4.1,4.5,5.1l6.7,2.6
	c3.7,1.4,4.5,4,4.5,5.7c-0.1,4.7-4.1,7.4-8.7,7.4c-3.5,0-7-1-10-3.3c0.3-0.5,0.7-1.3,1-1.8c2.1,1.6,5.5,3,8.8,3c2.6,0,5.7-1.2,6.3-4
	c0.6-2.5-0.8-4.1-3.1-5.1l-7.8-2.9c-3.1-1.2-5-3.5-4.6-7c0.5-3.4,3.9-5.8,8.5-5.8C214.9,21.3,217.9,22,220.2,23.8z"/>
<path fill="#878787" d="M109.4,80.8V54.9h16.4V57h-14.1v9.7h13.1v2.1h-13.1v10h14.4v2.1H109.4z"/>
<path fill="#878787" d="M130.2,80.8V54.9h8.9c7.9,0,12.7,4.3,12.7,13c0,8.6-4.8,13-12.7,13H130.2z M139.3,78.7
	c5.7,0,10.3-3.2,10.3-10.9c0-7.8-4.4-10.9-10.5-10.9h-6.7v21.8H139.3z"/>
<path fill="#878787" d="M155,70.1V54.9h2.3v14.9c0,6.5,2.4,9.6,8.1,9.6c5.8,0,8.2-3.1,8.2-9.6V54.9h2.3v15.1c0,8.4-4,11.3-10.5,11.3
	C159,81.3,155,78.4,155,70.1z"/>
<path fill="#878787" d="M191.9,54.5c2.5,0,5.4,0.3,7.2,1.1c-0.2,0.7-0.5,1.2-0.7,1.7c-2.3-0.7-4.9-0.7-5.5-0.7
	c-8.3,0-11.3,5.8-11.3,11.3c0,5.5,3,11.3,11.3,11.3c1.2,0,3.2,0,5.6-0.7c0.2,0.7,0.5,1.2,0.7,1.7c-1.8,0.8-4.7,1.1-7.2,1.1
	c-7.9,0-12.7-6-12.7-13.4C179.1,60.5,184,54.5,191.9,54.5z"/>
<path fill="#878787" d="M199.7,80.8l10.8-25.9h2.7l10.8,25.9h-2.3l-2.6-6.3h-14.4l-2.5,6.3H199.7z M205.4,72.4h12.9L211.8,57
	L205.4,72.4z"/>
<path fill="#878787" d="M231.6,57v23.8h-2.2V57h-8.6v-2.1h19.5V57H231.6z"/>
<path fill="#878787" d="M243.7,54.9h2.2v25.9h-2.2V54.9z"/>
<path fill="#878787" d="M250.2,67.9c0-8.4,4.7-13.4,12.2-13.4c7.5,0,12.2,5,12.2,13.4c0,8.4-4.6,13.5-12.2,13.5
	C254.9,81.3,250.2,76.3,250.2,67.9z M252.7,67.9c0,6.5,3.2,11.5,9.8,11.5c6.6,0,9.8-5,9.8-11.5c0-6.1-3.2-11.4-9.8-11.4
	C255.9,56.5,252.7,61.8,252.7,67.9z"/>
<path fill="#878787" d="M280.9,57.6v23.2h-2.2V54.9h3.1L296.5,78V54.9h2.2v25.9H296L280.9,57.6z"/>
<path fill="#8064A9" d="M49.1,80.7C49.1,80.6,49.1,80.6,49.1,80.7L49.1,80.7C49.1,80.6,49.1,80.6,49.1,80.7c-0.1,0-0.1,0-0.1,0
	c0,0,0,0-0.1,0H26.6l-11.2,0c0,0,0,0,0,0c0,0,0.1,0,0.2-0.1c3.9-2.1,5-5.2,3.4-9.2L0,21.7l22.5,0.1c2.6,0.1,5.1,0.3,7.6,0.7
	c0,0,0,0,0,0c0.1,0,0.1,0,0.2-0.1C34.1,12.6,40.8,5,49.1,1.2C57.3,5,64,12.6,67.9,22.4c0,0.1,0.1,0.1,0.2,0.1c0,0,0,0,0,0
	c2.4-0.4,5-0.6,7.6-0.7l22.5-0.1l-19,49.6c-1.6,4.1-0.4,7.2,3.4,9.2c0.1,0,0.1,0.1,0.2,0.1c0,0,0,0,0,0c0,0,0,0-0.1,0l-11.1,0h0
	H49.1z M74.2,28.5c-1.3,0-2.7,0.1-4.1,0.3c0,0-0.1,0-0.1,0.1c0,0,0,0.1,0,0.1c0.9,3.9,1.4,7.9,1.4,11.9c0,11.8-3.8,22.8-10.8,30.9
	c-1.3,1.9-2.9,3.4-4.7,4.6c-0.2,0.2-0.4,0.3-0.6,0.5c-0.1,0-0.1,0.1-0.1,0.2c0,0.1,0,0.1,0.1,0.1c1,0.3,1.9,0.4,2.9,0.4
	c3.7,0,7.6-2.1,11.6-6.3c0.9-0.9,2.2-2.8,3.5-5c1-1.8,2.1-3.9,2.5-5C83,43.6,88.2,29,88.3,28.8c0-0.1,0-0.1,0-0.2
	c0,0-0.1-0.1-0.1-0.1C88.1,28.6,74.2,28.5,74.2,28.5z M10,28.6c-0.1,0-0.1,0-0.1,0.1c0,0,0,0.1,0,0.2c0.1,0.1,5.3,14.8,12.6,32.6
	c0.5,1.1,1.5,3.2,2.5,5c1.3,2.2,2.6,4.1,3.5,5c4,4.2,7.9,6.3,11.6,6.3c1,0,2-0.2,2.9-0.4c0.1,0,0.1-0.1,0.1-0.1c0-0.1,0-0.1-0.1-0.2
	c-0.2-0.2-0.4-0.3-0.6-0.5c-1.8-1.1-3.4-2.7-4.7-4.6c-7-8.1-10.8-19.1-10.8-30.9c0-4,0.5-8,1.4-11.9c0,0,0-0.1,0-0.1
	c0,0-0.1-0.1-0.1-0.1c-1.4-0.2-2.8-0.3-4.1-0.3h0L10,28.6z M49.1,39.4c0,0-0.1,0-0.1,0.1c-4,4.4-6.7,9.7-8,16
	c-1,4.7-0.3,8.8,1.9,12.2c1.9,2.1,3.9,3.9,6.1,5.3c0,0,0.1,0,0.1,0c0,0,0.1,0,0.1,0c2.2-1.4,4.2-3.1,6.1-5.2
	c2.2-3.4,2.9-7.5,1.9-12.2c-1.3-6.2-4-11.6-8-16C49.2,39.5,49.1,39.4,49.1,39.4z M63.3,30.3C63.3,30.3,63.3,30.3,63.3,30.3
	c-3.1,1-6,2.4-8.7,4.2c0,0-0.1,0.1-0.1,0.1c0,0,0,0.1,0,0.1c4.1,4.5,6.9,10,8.6,16.4c0,0.1,0.1,0.1,0.2,0.1c0,0,0,0,0,0
	c0.1,0,0.1-0.1,0.2-0.1c0.8-3.4,1.2-6.9,1.2-10.3c0-3.5-0.4-7-1.2-10.4C63.5,30.4,63.5,30.3,63.3,30.3
	C63.4,30.3,63.4,30.3,63.3,30.3z M34.8,30.3C34.8,30.3,34.7,30.3,34.8,30.3c-0.1,0-0.2,0.1-0.2,0.1c-0.8,3.4-1.2,6.9-1.2,10.4
	c0,3.5,0.4,7,1.2,10.3c0,0.1,0.1,0.1,0.2,0.1c0,0,0,0,0,0c0.1,0,0.1-0.1,0.2-0.1c1.6-6.4,4.5-12,8.6-16.4c0,0,0-0.1,0-0.1
	c0,0,0-0.1-0.1-0.1C40.8,32.8,37.9,31.3,34.8,30.3C34.8,30.3,34.8,30.3,34.8,30.3z M49.1,8.8C49,8.8,49,8.8,49.1,8.8
	c-5.3,3.3-9.5,8.5-12.3,15c0,0,0,0.1,0,0.1c0,0,0.1,0.1,0.1,0.1c4.5,1.3,8.6,3.3,12.1,5.7c0,0,0.1,0,0.1,0s0.1,0,0.1,0
	c3.5-2.5,7.5-4.4,12.1-5.7c0,0,0.1,0,0.1-0.1c0,0,0-0.1,0-0.1C58.5,17.3,54.3,12.1,49.1,8.8C49.1,8.8,49.1,8.8,49.1,8.8z"/>
</svg>
