<svg xmlns="http://www.w3.org/2000/svg" width="1000" height="258" viewBox="0, 0, 1000, 258">
  <path d="M407.648 159.17c.25 61.728-34.777 97.47-80.515 97.47-20.93 0-43.75-8.684-64.2-26.367-16.917 17.11-40.16 26.367-64.195 26.367-38.242 0-74.254-22.137-74.343-73.06V134.7c0-10.613-4.36-15.687-16.903-17.55V73.476h41.375c28.906.066 44.465 18.44 44.465 52.51v48.802c.082 13.043 7.973 19.5 17.012 19.5 8.344 0 17.508-5.66 21.59-17.02V73.47h65.832v101.32c.09 13 10.777 19.594 20.73 19.594 15.598 0 22.176-15.09 22.176-36.22 0-5.292-.41-10.964-1.2-16.874-3.51-24.215-12.374-51.168-20.363-68.023h70.45c12.264 31.21 18.088 60.55 18.088 85.906M486.922 163.054c0 18.496 8.586 32.805 27.21 32.805 18.29-.01 27.56-14.31 27.56-32.806 0-18.168-9.27-33.13-27.56-33.13-18.624 0-27.21 14.962-27.21 33.13zm123.3-.047c0 56.47-35.238 93.625-95.917 93.625-60.676 0-95.914-37.156-95.914-93.453 0-56.302 35.24-93.7 95.915-93.876 60.68 0 95.918 37.402 95.918 93.703M716.78 257c-60.675 0-95.917-37.626-95.917-93.923 0-56.617 35.774-93.605 96.117-93.605 16.063 0 31.723 3.094 43.41 10.586 12.172 7.34 19.747 19.726 19.747 38.058v22.98h-45.895l-.574-2.86c-.84-5.592-4.07-8.885-8.71-10.217-2.38-.74-4.978-1.048-7.548-1.048-19.152 0-28.015 14.027-28.015 36.105 0 24.95 13.136 38.457 34.6 38.457 12.845 0 26.997-3.992 41.458-10.914l14.594 54.383C763.703 251.533 747.337 257 716.78 257M867.45 69.02c17.968 0 35.343 5.655 47.612 17.475l10.747-13.027h57.752v120.266c.3 8.8 4.594 13.76 13.317 15.2l2.905.303v43.676h-38.89c-15.485 0-25.65-6.023-33.067-19.594l-1.156-2.3c-15.78 16.475-36.223 24.87-56.96 24.87-40.173 0-75.724-32.258-75.724-92.528 0-60.8 30.524-94.343 73.46-94.343zm21.027 60.874c-6.707.043-13.063 2.39-17.594 7.476-6.668 7.49-8.684 19.906-7.86 29.653.672 7.992 2.24 16.336 7.91 22.44 4.942 5.32 10.536 6.692 17.508 7.032 9.4 0 20.486-1.515 26.622-2.808V132.78c-5.476-1.273-17.66-2.886-26.585-2.886" fill="#0075C9"/>
  <path d="M42.055 72.702c29.175.07 45.242 18.992 45.242 53.29l.03 129.085h-70.51l-.005-120.375c0-10.48-4.402-15.027-16.246-16.785l-.506-.077V72.702zM16.527.175H86.96v58.05H16.528z" fill="#FF681D"/>
</svg>

