<svg width="401" height="82" viewBox="0 0 401 82" xmlns="http://www.w3.org/2000/svg">
  <title>
    wired
  </title>
  <g fill="#231F20" fill-rule="evenodd">
    <path d="M0 0h80.25v82H0V0zm5.91 12.87C9.49 29.54 12.7 46.3 16.15 63c.63 2 .24 4.64 2.18 5.98 3.5.56 7.09.42 10.62.18 1.92.06 2.38-2.2 2.73-3.65 2.41-11.89 5.03-23.74 7.43-35.63.19-1.1.53-2.17 1.05-3.16 2.99 12.76 5.46 25.63 8.24 38.43.38 1.36.46 3.04 1.8 3.87 3.82.46 7.74.5 11.55-.03 1.37-.81 1.44-2.48 1.79-3.86 3.53-17.41 6.82-34.89 10.55-52.26-3.37.02-6.73.01-10.09.01-2.68 15.15-4.83 30.4-7.79 45.5-3.33-12.81-5.56-25.93-8.46-38.86-.66-2.21-.36-5.43-2.78-6.55-2.96-.18-5.94-.19-8.9 0-1.68.14-2.06 2.13-2.39 3.45-2.68 12.82-5.49 25.61-8.11 38.43-.27 1.19-.67 2.33-1.12 3.46-2.69-15.11-5.24-30.26-7.56-45.43-3.66-.01-7.32.01-10.98-.01zM159.75 0H240v82h-80.25V0zm18.13 12.88v56.24H189v-22c6.03.02 12.06-.03 18.09.01 2.2-.21 4.82 1.36 4.77 3.78.28 6.08.8 12.14 1.18 18.21 3.53 0 7.05 0 10.58.01-1-6.88.23-13.99-1.71-20.73-1-3.53-4.9-4.32-7.94-5.2 2.26-1.2 5.16-1.31 6.8-3.51 2.38-3.02 2.55-7.05 2.56-10.73-.04-4.3.06-9.03-2.67-12.64-2.18-3-6.26-3.44-9.68-3.44-11.03-.01-22.07 0-33.1 0zM319.75 0H401v82h-81.25V0zm18.13 12.88v56.24c9.35-.02 18.69.04 28.04-.03 5.76-.11 12.47-1.18 15.94-6.34 4.05-6.48 3.44-14.41 4.15-21.72-.72-7.32-.08-15.28-4.15-21.78-3.23-4.83-9.41-6.1-14.84-6.3-9.71-.16-19.43-.03-29.14-.07zM100.61 12.33c12.93-.03 25.85-.03 38.77 0 .05 3.35.05 6.71.01 10.07-4.57.03-9.14.01-13.71.01.02 12.39.02 24.79 0 37.18 4.57 0 9.14-.02 13.72.02.02 3.35.03 6.71-.02 10.06-12.92.03-25.84.03-38.76 0-.05-3.36-.05-6.71-.01-10.07 4.57-.03 9.14-.01 13.71-.01-.02-12.39-.02-24.79 0-37.18-4.57 0-9.14.02-13.71-.01-.04-3.36-.04-6.71 0-10.07zM254.34 12.34c15.84-.05 31.68-.05 47.53 0 .02 6.22 0 12.44.01 18.66h-10.29c-.01-2.87-.01-5.73.01-8.59-6.2.01-12.39.01-18.59 0-.02 4.3-.01 8.6-.01 12.9h15v9.57h-15c.02 4.91-.05 9.83.05 14.74 6.36-.07 12.72-.02 19.08-.03-.01-3.27-.01-6.54 0-9.81 3.49-.04 6.98-.04 10.47-.01 0 6.63.05 13.26-.03 19.89-16.08.05-32.15.05-48.23 0-.05-3.35-.04-6.7-.01-10.05 2.55-.03 5.09-.03 7.64-.01.05-12.4.05-24.8 0-37.2-2.55.02-5.1.02-7.65-.03-.02-3.34-.02-6.69.02-10.03z"/>
    <path d="M189 22.12c7.14.11 14.29-.22 21.41.15 2.75 1.95 2.2 5.87 2.31 8.82-.14 2.68-.19 6.97-3.76 7.18-6.64.34-13.31.05-19.96.14V22.12zM349 22.12c6.03.03 12.06-.04 18.09.02 2.69-.03 5.76 1.28 6.61 4.04 1.89 5.4 1.09 11.26 1.3 16.88-.16 4.49.31 9.23-1.6 13.44-1.28 2.72-4.59 3.44-7.32 3.39-5.7 0-11.39-.02-17.08-.01V22.12z"/>
  </g>
</svg>

